STARTFONT 2.1
COMMENT
COMMENT Converted from OpenType font "truongsa_regular.ttf" by "otf2bdf 3.0".
COMMENT
FONT -FreeType-VPS Truong Sa Light Hoa-Medium-R-Normal--50-360-100-100-P-251-ISO10646-1
SIZE 36 100 100
FONTBOUNDINGBOX 47 69 -1 -12
STARTPROPERTIES 19
FOUNDRY "FreeType"
FAMILY_NAME "VPS Truong Sa Light Hoa"
WEIGHT_NAME "Medium"
SLANT "R"
SETWIDTH_NAME "Normal"
ADD_STYLE_NAME ""
PIXEL_SIZE 50
POINT_SIZE 360
RESOLUTION_X 100
RESOLUTION_Y 100
SPACING "P"
AVERAGE_WIDTH 251
CHARSET_REGISTRY "ISO10646"
CHARSET_ENCODING "1"
FONT_ASCENT 48
FONT_DESCENT 11
COPYRIGHT "VPS Font"
_OTF_FONTFILE "truongsa_regular.ttf"
_OTF_PSNAME "VPS Truong Sa Light Hoa"
ENDPROPERTIES
CHARS 270
STARTCHAR 0002
ENCODING 2
SWIDTH 640 0
DWIDTH 32 0
BBX 33 45 0 -8
BITMAP
0000800000
0001C00000
0003C00000
0007E00000
0007F00000
000FF00000
000FF80000
001EF80000
001C7C0000
001C7C0000
003C3E0000
00383E0000
00781F0000
00701F0000
00F00F0000
00E00F8000
00E00F8000
01E007C000
01C007C000
03C003C000
038003E000
038003E000
07FFFFE000
07FFFFF000
070001F000
0F0000F000
0E0000F800
1E00007800
1E00007800
1C00007C00
3C00003C00
3C00003C00
3C00003E00
7C00003E00
7E00007F00
FF0000FF80
FF0000FF80
0000000000
0000000000
0003000000
0007800000
000F800000
000FC00000
0007800000
0003000000
ENDCHAR
STARTCHAR 0003
ENCODING 3
SWIDTH 640 0
DWIDTH 32 0
BBX 33 56 0 -8
BITMAP
0001C00000
0003E00000
0007F00000
0007700000
000E380000
001C1C0000
00180C0000
0030060000
0000000000
0000000000
0000000000
0000800000
0001C00000
0003C00000
0007E00000
0007F00000
000FF00000
000FF80000
001EF80000
001C7C0000
001C7C0000
003C3E0000
00383E0000
00781F0000
00701F0000
00F00F0000
00E00F8000
00E00F8000
01E007C000
01C007C000
03C003C000
038003E000
038003E000
07FFFFE000
07FFFFF000
070001F000
0F0000F000
0E0000F800
1E00007800
1E00007800
1C00007C00
3C00003C00
3C00003C00
3C00003E00
7C00003E00
7E00007F00
FF0000FF80
FF0000FF80
0000000000
0000000000
0003000000
0007800000
000F800000
000FC00000
0007800000
0003000000
ENDCHAR
STARTCHAR 0004
ENCODING 4
SWIDTH 640 0
DWIDTH 32 0
BBX 33 54 0 -8
BITMAP
0040040000
0020040000
00300C0000
003EF80000
001FF00000
000FE00000
0000000000
0000000000
0000000000
0000800000
0001C00000
0003C00000
0007E00000
0007F00000
000FF00000
000FF80000
001EF80000
001C7C0000
001C7C0000
003C3E0000
00383E0000
00781F0000
00701F0000
00F00F0000
00E00F8000
00E00F8000
01E007C000
01C007C000
03C003C000
038003E000
038003E000
07FFFFE000
07FFFFF000
070001F000
0F0000F000
0E0000F800
1E00007800
1E00007800
1C00007C00
3C00003C00
3C00003C00
3C00003E00
7C00003E00
7E00007F00
FF0000FF80
FF0000FF80
0000000000
0000000000
0003000000
0007800000
000F800000
000FC00000
0007800000
0003000000
ENDCHAR
STARTCHAR 0005
ENCODING 5
SWIDTH 600 0
DWIDTH 30 0
BBX 28 44 2 -8
BITMAP
FFFFFFC0
FFFFFFC0
7FFFFFC0
3F0003C0
3E0000C0
3E000040
3E000000
3E000000
3E000000
3E000000
3E000000
3E000000
3E000000
3E000400
3E000E00
3FFFFE00
3FFFFE00
3FFFFE00
3E000E00
3E000000
3E000000
3E000000
3E000000
3E000000
3E000000
3E000000
3E000000
3E000000
3E000000
3E000030
3E000070
3E0000F0
3F0003F0
7FFFFFF0
FFFFFFF0
FFFFFFE0
00000000
00000000
000C0000
001E0000
003E0000
003F0000
001E0000
000C0000
ENDCHAR
STARTCHAR 0006
ENCODING 6
SWIDTH 600 0
DWIDTH 30 0
BBX 28 57 2 -9
BITMAP
000F0000
000F8000
001F8000
003DC000
0038E000
00706000
00E03000
00C01800
00000000
00000000
00000000
00000000
FFFFFFC0
FFFFFFC0
7FFFFFC0
3F0003C0
3E0000C0
3E000040
3E000000
3E000000
3E000000
3E000000
3E000000
3E000000
3E000000
3E000400
3E000E00
3FFFFE00
3FFFFE00
3FFFFE00
3E000E00
3E000000
3E000000
3E000000
3E000000
3E000000
3E000000
3E000000
3E000000
3E000000
3E000000
3E000030
3E000070
3E0000F0
3F0003F0
7FFFFFF0
FFFFFFF0
FFFFFFE0
00000000
00000000
00000000
00070000
000F8000
000F8000
000F8000
000F8000
00020000
ENDCHAR
STARTCHAR 0015
ENCODING 21
SWIDTH 700 0
DWIDTH 35 0
BBX 36 54 1 -9
BITMAP
00000003E0
0000000630
0000000610
0000000010
0000000010
0000000030
0000000060
00000003C0
0000000200
FFE001FF80
FFE001FF80
7FC000FE00
1F00003C00
1F00001C00
1F00001C00
1E00001C00
1E00001E00
1E00001E00
1E00001E00
1E00001E00
1E00001E00
3E00001E00
3E00001E00
3E00001E00
3E00001E00
3E00001E00
3E00001E00
3E00001E00
3E00001E00
3E00001E00
3E00001E00
3E00001E00
3E00001E00
3E00001E00
1E00001E00
1E00001C00
1E00001C00
1F00003C00
0F00003800
0F80007800
07C000F000
07E001F000
03F807E000
01FFFFC000
007FFF0000
001FF80000
0000000000
0000000000
0000800000
0001E00000
0003E00000
0003E00000
0003E00000
0001C00000
ENDCHAR
STARTCHAR 0019
ENCODING 25
SWIDTH 640 0
DWIDTH 32 0
BBX 34 44 -1 -8
BITMAP
FFC0007FC0
FFC0007F80
3F80003F00
1F00001F00
0F80001E00
0F80001C00
07C0003C00
07C0003800
03E0007000
01F0007000
01F000E000
00F801C000
007C01C000
007C038000
003E070000
001F0F0000
000F8E0000
000F9C0000
0007FC0000
0003F80000
0003F00000
0001F00000
0001F00000
0001F00000
0001F00000
0001F00000
0001F00000
0001F00000
0001F00000
0001F00000
0001F00000
0001F00000
0001F00000
0003F80000
000FFC0000
000FFC0000
0000000000
0000000000
0000000000
0000F00000
0001F00000
0001F00000
0001F00000
0000E00000
ENDCHAR
STARTCHAR 001C
ENCODING 28
SWIDTH 640 0
DWIDTH 32 0
BBX 33 55 0 0
BITMAP
0000020000
0007020000
001FFE0000
003FFC0000
0033F80000
0020000000
0060000000
0001C00000
0003E00000
0007F00000
0007700000
000E380000
001C1C0000
00180C0000
0030060000
0000000000
0000000000
0000000000
0000800000
0001C00000
0003C00000
0007E00000
0007F00000
000FF00000
000FF80000
001EF80000
001C7C0000
001C7C0000
003C3E0000
00383E0000
00781F0000
00701F0000
00F00F0000
00E00F8000
00E00F8000
01E007C000
01C007C000
03C003C000
038003E000
038003E000
07FFFFE000
07FFFFF000
070001F000
0F0000F000
0E0000F800
1E00007800
1E00007800
1C00007C00
3C00003C00
3C00003C00
3C00003E00
7C00003E00
7E00007F00
FF0000FF80
FF0000FF80
ENDCHAR
STARTCHAR 001D
ENCODING 29
SWIDTH 700 0
DWIDTH 35 0
BBX 36 56 1 -1
BITMAP
0000008000
0003E18000
0007FF8000
000FFF0000
00083E0000
0018000000
0000000000
0000000000
0000000000
0000000000
00000003E0
0000000630
0000000610
0000000010
0000000010
0000000030
0000000060
00000003C0
0000000200
FFE001FF80
FFE001FF80
7FC000FE00
1F00003C00
1F00001C00
1F00001C00
1E00001C00
1E00001E00
1E00001E00
1E00001E00
1E00001E00
1E00001E00
3E00001E00
3E00001E00
3E00001E00
3E00001E00
3E00001E00
3E00001E00
3E00001E00
3E00001E00
3E00001E00
3E00001E00
3E00001E00
3E00001E00
3E00001E00
1E00001E00
1E00001C00
1E00001C00
1F00003C00
0F00003800
0F80007800
07C000F000
07E001F000
03F807E000
01FFFFC000
007FFF0000
001FF80000
ENDCHAR
STARTCHAR 0020
ENCODING 32
SWIDTH 260 0
DWIDTH 13 0
BBX 0 0 0 0
BITMAP
ENDCHAR
STARTCHAR 0021
ENCODING 33
SWIDTH 260 0
DWIDTH 13 0
BBX 5 38 4 -1
BITMAP
70
F8
F8
F8
F8
F8
F8
F8
F8
F8
F8
78
70
70
70
70
70
70
70
70
70
70
70
70
70
70
20
20
00
00
00
00
30
F8
F8
F8
F8
30
ENDCHAR
STARTCHAR 0022
ENCODING 34
SWIDTH 320 0
DWIDTH 16 0
BBX 12 15 2 21
BITMAP
6060
F0F0
F0F0
F0F0
F0F0
7070
7070
7070
7070
6060
6060
6060
2020
2020
2020
ENDCHAR
STARTCHAR 0023
ENCODING 35
SWIDTH 760 0
DWIDTH 38 0
BBX 33 36 3 0
BITMAP
0000E03800
0000E03800
0001E07800
0001C07000
0001C07000
000380F000
000380E000
000780E000
000701E000
000701C000
000F01C000
000E03C000
1FFFFFFF80
1FFFFFFF00
3FFFFFFF00
001C070000
003C070000
00380E0000
00380E0000
00700E0000
00701C0000
00701C0000
FFFFFFFC00
FFFFFFF800
FFFFFFF800
01C0780000
01C0700000
03C0700000
0380F00000
0380E00000
0780E00000
0701C00000
0701C00000
0F03C00000
0E03800000
0E03800000
ENDCHAR
STARTCHAR 0024
ENCODING 36
SWIDTH 540 0
DWIDTH 27 0
BBX 22 46 3 -6
BITMAP
003000
003000
003000
003000
03FF00
0FFF80
1E33E0
3830E0
783070
703070
703070
703070
703000
703000
783000
7C3000
3E3000
3FB000
1FF000
0FFC00
03FF00
01FFC0
007FE0
003FF0
0033F8
0030F8
00307C
00303C
00303C
00301C
40301C
C0301C
E0301C
E03038
F03038
703070
3C30E0
1F37C0
0FFF80
03FC00
003000
003000
003000
003000
003000
003000
ENDCHAR
STARTCHAR 0025
ENCODING 37
SWIDTH 860 0
DWIDTH 43 0
BBX 37 38 4 0
BITMAP
03E0001C00
1FFC003800
3C1F80F800
780FFFF000
700F7F7000
F007806000
F00780E000
F00780C000
E007818000
F007818000
F007830000
F007870000
F007860000
F00F0E0000
780F0C0000
3C1E1C0000
1FF8180000
07E0300000
0000300000
0000600000
0000E07F00
0000C1FFC0
0001C3C1E0
00018780F0
00030F0070
00030F0078
00060F0078
000E0E0078
000C0E0078
001C0E0078
00180E0078
00380F0078
00300F0078
00600700F0
00E00780E0
00C003C3C0
01C000FF80
0180003E00
ENDCHAR
STARTCHAR 0026
ENCODING 38
SWIDTH 760 0
DWIDTH 38 0
BBX 37 38 1 -1
BITMAP
001FC00000
007FF00000
00FFF80000
01E03C0000
03C01C0000
03801E0000
07800E0000
07800E0000
07801E0000
07801C0000
07801C0000
07C0380000
03C0F80000
03E1E00000
01F7C00000
01FF800000
00FE007F80
00FC00FFC0
01FE007FC0
07BE001F00
0F1F001E00
1E1F801C00
3C0FC03800
3807C03800
7803E07000
7001F07000
F001F8E000
F000FDC000
F0007FC000
F0003F8000
78001F8000
78001FC000
7C003FE000
3E007FF800
1FC3F3FFF8
0FFFE0FFF0
07FF803FE0
01FE000200
ENDCHAR
STARTCHAR 0027
ENCODING 39
SWIDTH 160 0
DWIDTH 8 0
BBX 4 15 2 21
BITMAP
60
F0
F0
F0
F0
F0
70
70
70
60
60
60
20
20
20
ENDCHAR
STARTCHAR 0028
ENCODING 40
SWIDTH 320 0
DWIDTH 16 0
BBX 9 45 4 -8
BITMAP
0180
0380
0700
0700
0F00
0E00
0E00
1C00
1C00
3C00
3800
3800
7800
7800
7800
7000
7000
7000
F000
F000
F000
F000
F000
F000
F000
F000
F000
7000
7000
7000
7000
7800
7800
3800
3800
3C00
1C00
1C00
1E00
0E00
0E00
0700
0700
0380
0180
ENDCHAR
STARTCHAR 0029
ENCODING 41
SWIDTH 320 0
DWIDTH 16 0
BBX 9 45 3 -8
BITMAP
E000
6000
7000
7800
3800
3800
1C00
1C00
1E00
0E00
0E00
0F00
0F00
0700
0700
0700
0780
0780
0780
0780
0380
0380
0380
0380
0780
0780
0780
0780
0780
0780
0700
0700
0F00
0F00
0E00
0E00
1E00
1C00
1C00
3C00
3800
3800
7000
7000
E000
ENDCHAR
STARTCHAR 002A
ENCODING 42
SWIDTH 480 0
DWIDTH 24 0
BBX 18 20 3 17
BITMAP
00E000
01E000
01E000
01E000
70E1C0
F8C3C0
F8C7C0
FC4FC0
3E5F00
01E000
00C000
077C00
7E4FC0
FC47C0
F8C7C0
70E3C0
01E000
01E000
01E000
01E000
ENDCHAR
STARTCHAR 002B
ENCODING 43
SWIDTH 820 0
DWIDTH 41 0
BBX 29 30 6 0
BITMAP
00070000
00070000
00070000
00070000
00070000
00070000
00070000
00070000
00070000
00070000
00070000
00070000
00070000
00070000
FFFFFFF8
FFFFFFF8
FFFFFFF8
00070000
00070000
00070000
00070000
00070000
00070000
00070000
00070000
00070000
00070000
00070000
00070000
00070000
ENDCHAR
STARTCHAR 002C
ENCODING 44
SWIDTH 260 0
DWIDTH 13 0
BBX 6 14 4 -9
BITMAP
20
F8
F8
FC
FC
7C
0C
08
18
18
30
60
40
80
ENDCHAR
STARTCHAR 002D
ENCODING 45
SWIDTH 320 0
DWIDTH 16 0
BBX 12 3 2 10
BITMAP
FFF0
FFF0
FFF0
ENDCHAR
STARTCHAR 002E
ENCODING 46
SWIDTH 260 0
DWIDTH 13 0
BBX 6 6 4 -1
BITMAP
30
78
F8
FC
78
30
ENDCHAR
STARTCHAR 002F
ENCODING 47
SWIDTH 260 0
DWIDTH 13 0
BBX 14 42 -1 -5
BITMAP
0004
000C
000C
001C
0018
0018
0018
0030
0030
0030
0060
0060
0060
00E0
00C0
00C0
01C0
0180
0180
0380
0300
0300
0300
0600
0600
0600
0C00
0C00
0C00
1800
1800
1800
3800
3000
3000
7000
6000
6000
6000
C000
C000
8000
ENDCHAR
STARTCHAR 0030
ENCODING 48
SWIDTH 540 0
DWIDTH 27 0
BBX 25 38 1 -1
BITMAP
003E0000
01FFC000
03FFF000
0780F800
0F007800
1E003C00
1E001E00
3C001E00
3C001E00
3C001F00
7C000F00
7C000F00
7C000F00
78000F80
78000F80
78000F80
78000F80
F8000F80
F8000F80
F8000F80
F8000F80
78000F80
78000F80
78000F80
78000F80
78000F00
7C000F00
7C000F00
3C001F00
3C001E00
3C001E00
1E003E00
1E003C00
0F007800
07C0F000
03FFE000
00FFC000
001E0000
ENDCHAR
STARTCHAR 0031
ENCODING 49
SWIDTH 540 0
DWIDTH 27 0
BBX 19 37 4 0
BITMAP
001000
003800
00F800
07F800
7FF800
FFF800
01F800
00F800
00F800
00F800
00F800
00F800
00F800
00F800
00F800
00F800
00F800
00F800
00F800
00F800
00F800
00F800
00F800
00F800
00F800
00F800
00F800
00F800
00F800
00F800
00F800
00F800
00F800
01F800
0FFF80
7FFFE0
3FFFE0
ENDCHAR
STARTCHAR 0032
ENCODING 50
SWIDTH 540 0
DWIDTH 27 0
BBX 24 37 1 0
BITMAP
007F00
01FFE0
07FFF8
0F00FC
1E007C
3C003E
38001E
78001F
78001F
7C001F
7C001F
7C001E
3C003E
00003E
00007C
0000FC
0001F8
0003F0
0007E0
000FC0
001F80
003F00
007C00
00F800
01F000
03E000
03C000
078000
0F0000
1E0000
3C0007
3C000F
78001E
7FFFFE
FFFFFE
FFFFFC
FFFFFC
ENDCHAR
STARTCHAR 0033
ENCODING 51
SWIDTH 540 0
DWIDTH 27 0
BBX 24 38 1 -1
BITMAP
007E00
03FFC0
07FFE0
1F01F8
1E00F8
3C007C
3C003C
3C003C
3C003E
3C003E
00003C
00007C
00007C
0000F8
0001F0
0003E0
007F80
01FE00
01FFC0
0003F0
0000F8
00007C
00003E
00003E
00001F
00001F
00001F
60001F
F0001F
F0001F
F0003E
F0003E
F0007C
F800FC
7C01F8
3FDFE0
0FFFC0
01FC00
ENDCHAR
STARTCHAR 0034
ENCODING 52
SWIDTH 540 0
DWIDTH 27 0
BBX 27 37 0 0
BITMAP
00007000
0000F000
0001F800
0003F800
0007F800
000F7800
001E7800
003C7800
00787800
00F07800
00E07800
01E07800
03C07800
03807800
07807800
07007800
0E007800
1E007800
1C007800
1C007800
3C007800
38007800
78007800
70007800
7FFFFFE0
FFFFFFE0
7FFFFFE0
00007800
00007800
00007800
00007800
00007800
00007800
0000F800
0001FC00
0007FF00
0007FF00
ENDCHAR
STARTCHAR 0035
ENCODING 53
SWIDTH 540 0
DWIDTH 27 0
BBX 24 37 1 -1
BITMAP
0FFFFC
1FFFF8
0FFFF0
0FFF80
1C0000
1C0000
1C0000
1C0000
1C0000
1C0000
1C0000
1C0000
1C0000
1C0000
1CFFC0
1FFFF0
1FC1F8
1E007C
18003E
00001F
00001F
00001F
00000F
00000F
00000F
00000F
00000F
70001F
F8001F
F8001E
F8003E
F8007C
7C00FC
3E01F8
1FFFE0
07FF80
00FC00
ENDCHAR
STARTCHAR 0036
ENCODING 54
SWIDTH 540 0
DWIDTH 27 0
BBX 24 38 2 -1
BITMAP
000078
0007F8
001FE0
007E00
00F800
03E000
07C000
078000
0F0000
1E0000
3E0000
3C0000
3C0000
7C0000
780000
F87FC0
F9FFF0
FFFFF8
FF00FC
FC007C
F8003E
F0001E
F0001F
F0001F
F0001F
F0001F
F0001F
F0001F
F8001F
78001E
78001E
7C003E
3C003C
1E0078
0F80F0
07FFE0
03FFC0
007E00
ENDCHAR
STARTCHAR 0037
ENCODING 55
SWIDTH 540 0
DWIDTH 27 0
BBX 23 37 3 -1
BITMAP
7FFFFE
FFFFFC
FFFFFC
FFFFFC
F00038
E00038
E00078
C00070
000070
0000E0
0000E0
0001E0
0001C0
0003C0
000380
000780
000780
000700
000F00
000F00
001E00
001E00
003C00
003C00
003C00
007800
007800
00F800
00F000
01F000
01F000
01F000
03E000
03E000
03E000
03C000
018000
ENDCHAR
STARTCHAR 0038
ENCODING 56
SWIDTH 540 0
DWIDTH 27 0
BBX 25 38 1 -1
BITMAP
003F0000
01FFE000
07FFF800
0F007C00
1E003E00
1C001E00
3C000E00
38000F00
38000F00
38000E00
38000E00
3C001E00
3E003C00
3F003800
1FC0F000
0FF9E000
07FF8000
03FFC000
00FFF000
01FFF800
0787FC00
0F01FE00
1E007F00
3C001F00
78000F80
78000F80
F0000780
F0000780
F0000780
F0000780
F0000780
78000F00
78000E00
3C001E00
1F007C00
0FFFF000
03FFE000
007E0000
ENDCHAR
STARTCHAR 0039
ENCODING 57
SWIDTH 540 0
DWIDTH 27 0
BBX 25 38 1 -1
BITMAP
007F0000
01FFC000
07FFF000
0F80F800
1E007C00
3C003C00
3C001E00
7C001E00
78001F00
78000F00
F8000F00
F8000F00
F8000F80
F8000F80
78000F80
7C000F80
7C000F80
7C001F80
3E003F80
1F807F00
0FFFEF00
07FF8F00
01FE0F00
00001F00
00001E00
00001E00
00003C00
00007C00
00007800
0000F800
0001F000
0003E000
0007C000
001F0000
007E0000
07F80000
1FE00000
1E000000
ENDCHAR
STARTCHAR 003A
ENCODING 58
SWIDTH 260 0
DWIDTH 13 0
BBX 6 23 4 -1
BITMAP
78
F8
FC
F8
78
00
00
00
00
00
00
00
00
00
00
00
00
30
78
F8
FC
78
30
ENDCHAR
STARTCHAR 003B
ENCODING 59
SWIDTH 260 0
DWIDTH 13 0
BBX 7 31 3 -9
BITMAP
78
7C
FC
7C
78
00
00
00
00
00
00
00
00
00
00
00
00
30
7C
7C
FE
7E
3E
06
04
0C
0C
18
30
20
40
ENDCHAR
STARTCHAR 003C
ENCODING 60
SWIDTH 820 0
DWIDTH 41 0
BBX 29 26 6 2
BITMAP
00000008
00000038
000001F8
000007F0
00003FC0
0000FE00
0007F800
001FE000
007F0000
03FC0000
0FE00000
7F800000
FC000000
FC000000
7F000000
1FE00000
03F80000
00FF0000
001FC000
0007F800
0001FE00
00003FC0
00000FF0
000001F8
00000078
00000008
ENDCHAR
STARTCHAR 003D
ENCODING 61
SWIDTH 820 0
DWIDTH 41 0
BBX 29 12 6 9
BITMAP
FFFFFFF8
FFFFFFF8
FFFFFFF8
00000000
00000000
00000000
00000000
00000000
00000000
FFFFFFF8
FFFFFFF8
FFFFFFF8
ENDCHAR
STARTCHAR 003E
ENCODING 62
SWIDTH 820 0
DWIDTH 41 0
BBX 29 26 6 2
BITMAP
C0000000
F0000000
FC000000
7F800000
0FE00000
03FC0000
007F0000
001FE000
0003F800
0000FF00
00003FC0
000007F0
000001F8
000000F8
000007F8
00001FC0
0000FF00
0003FC00
000FE000
007F8000
01FC0000
0FF00000
3F800000
FE000000
F0000000
C0000000
ENDCHAR
STARTCHAR 003F
ENCODING 63
SWIDTH 440 0
DWIDTH 22 0
BBX 19 38 1 -1
BITMAP
03F800
0FFE00
3E0F00
780780
7803C0
F801C0
F801E0
F801E0
7001E0
0001E0
0001E0
0001E0
0001E0
0003E0
0003C0
0007C0
000F80
003F00
00FE00
01FC00
03F000
03C000
038000
030000
030000
030000
030000
030000
000000
000000
000000
000000
038000
07C000
07C000
07C000
07C000
038000
ENDCHAR
STARTCHAR 0040
ENCODING 64
SWIDTH 980 0
DWIDTH 49 0
BBX 42 42 4 -7
BITMAP
0000FFFC0000
0007C0078000
001E0000E000
003800003000
00E000001800
01C000000C00
038000000600
070000000300
0E0000000100
1C0000000180
1C0003000080
38003DC78080
380070670080
7000E02F00C0
7001C01F0040
E003C01F0040
E007801E0040
E00F801E0040
E00F001E00C0
E01F001C00C0
C01E003C0080
C01E003C0080
C01E003C0180
C01E00780100
C01C00780100
E01C00F80200
E01C00F00600
E01C01F00C00
600E03701800
700E06303000
70079C38E000
3801F00F8000
180000000000
1C0000000000
0E0000000000
070000000000
038000000C00
01E000003800
00700000E000
001E00038000
0007F8FC0000
00007FC00000
ENDCHAR
STARTCHAR 0041
ENCODING 65
SWIDTH 640 0
DWIDTH 32 0
BBX 33 37 0 0
BITMAP
0000800000
0001C00000
0003C00000
0007E00000
0007F00000
000FF00000
000FF80000
001EF80000
001C7C0000
001C7C0000
003C3E0000
00383E0000
00781F0000
00701F0000
00F00F0000
00E00F8000
00E00F8000
01E007C000
01C007C000
03C003C000
038003E000
038003E000
07FFFFE000
07FFFFF000
070001F000
0F0000F000
0E0000F800
1E00007800
1E00007800
1C00007C00
3C00003C00
3C00003C00
3C00003E00
7C00003E00
7E00007F00
FF0000FF80
FF0000FF80
ENDCHAR
STARTCHAR 0042
ENCODING 66
SWIDTH 660 0
DWIDTH 33 0
BBX 30 36 2 0
BITMAP
FFFFF800
FFFFFF00
7FFFFF80
3F000FC0
3E0007E0
3E0003E0
3E0003E0
3E0001E0
3E0001E0
3E0003E0
3E0003E0
3E0007C0
3E000FC0
3E001F80
3E007E00
3E01F800
3E1FF000
3FFFFF00
3FFC3FC0
3FC00FE0
3E0003F0
3E0001F8
3E0000F8
3E0000F8
3E00007C
3E00007C
3E00007C
3E00007C
3E0000FC
3E0000F8
3E0001F8
3E0003F0
3F000FE0
7FFFFFC0
FFFFFF80
FFFFFC00
ENDCHAR
STARTCHAR 0043
ENCODING 67
SWIDTH 680 0
DWIDTH 34 0
BBX 32 38 2 -1
BITMAP
0003FE00
001FFFC0
007FFFF8
01F803FC
03E000FC
07C0007C
0F80003C
1F00001C
3F00001C
3E00000C
7C00000C
7C000000
7C000000
F8000000
F8000000
F8000000
F8000000
F8000000
F8000000
F8000000
F8000000
F8000000
F8000000
F8000000
F8000000
FC000000
7C000000
7C000000
7E000002
3F000007
3F00000F
1F80001E
0FC0003C
07F000F8
03FE07F0
01FFFFE0
007FFF80
000FFC00
ENDCHAR
STARTCHAR 0044
ENCODING 68
SWIDTH 720 0
DWIDTH 36 0
BBX 32 36 2 0
BITMAP
FFFFE000
FFFFFC00
7FE7FF00
3F001FC0
3E0007E0
3E0003F0
3E0000F8
3E0000FC
3E00007C
3E00003E
3E00003E
3E00003F
3E00001F
3E00001F
3E00001F
3E00001F
3E00001F
3E00001F
3E00001F
3E00001F
3E00001F
3E00001F
3E00001F
3E00001F
3E00003E
3E00003E
3E00007E
3E00007C
3E0000FC
3E0001F8
3E0003F0
3E0007E0
3F003FC0
7FEFFF00
FFFFFC00
FFFFC000
ENDCHAR
STARTCHAR 0045
ENCODING 69
SWIDTH 600 0
DWIDTH 30 0
BBX 28 36 2 0
BITMAP
FFFFFFC0
FFFFFFC0
7FFFFFC0
3F0003C0
3E0000C0
3E000040
3E000000
3E000000
3E000000
3E000000
3E000000
3E000000
3E000000
3E000400
3E000E00
3FFFFE00
3FFFFE00
3FFFFE00
3E000E00
3E000000
3E000000
3E000000
3E000000
3E000000
3E000000
3E000000
3E000000
3E000000
3E000000
3E000030
3E000070
3E0000F0
3F0003F0
7FFFFFF0
FFFFFFF0
FFFFFFE0
ENDCHAR
STARTCHAR 0046
ENCODING 70
SWIDTH 560 0
DWIDTH 28 0
BBX 27 36 1 0
BITMAP
7FFFFFC0
7FFFFFC0
3FE3FFE0
1F0003E0
1F0000E0
1F000060
1F000000
1F000000
1F000000
1F000000
1F000000
1F000000
1F000000
1F000000
1F000000
1F000E00
1FFFFE00
1FFFFE00
1FFFFE00
1F000E00
1F000000
1F000000
1F000000
1F000000
1F000000
1F000000
1F000000
1F000000
1F000000
1F000000
1F000000
1F000000
1F000000
3FC00000
FFE00000
FFE00000
ENDCHAR
STARTCHAR 0047
ENCODING 71
SWIDTH 760 0
DWIDTH 38 0
BBX 34 38 2 -1
BITMAP
0001FF0000
000FFFF000
007FFFFC00
00FC00FE00
01F0003E00
03E0001F00
07C0000F00
0F80000700
1F00000700
3F00000300
3E00000000
7E00000000
7C00000000
7C00000000
FC00000000
F800000000
F800000000
F800000000
F800000000
F80007FF80
F80007FF80
F800001F80
F800000780
F800000780
F800000780
7C00000780
7C00000780
7E00000780
3E00000780
3F00000780
1F80000780
0F80000FC0
0FE0000F80
07F0001F80
01FC007F00
00FFEFFC00
003FFFE000
0007FF0000
ENDCHAR
STARTCHAR 0048
ENCODING 72
SWIDTH 760 0
DWIDTH 38 0
BBX 35 36 2 0
BITMAP
FFC0007FE0
FFC0007FE0
7F00003F80
3E00001F00
3E00000F00
3E00000F00
3E00000F00
3E00000F00
3E00000F00
3E00000F00
3E00000F00
3E00000F00
3E00000F00
3E00000F00
3E00000F00
3FFFFFFF00
3FFFFFFF00
3FFFFFFF00
3E00000F00
3E00000F00
3E00000F00
3E00000F00
3E00000F00
3E00000F00
3E00000F00
3E00000F00
3E00000F00
3E00000F00
3E00000F00
3E00000F00
3E00000F00
3E00000F00
3E00001F00
7F00003FC0
FFC0007FE0
FFC0007FE0
ENDCHAR
STARTCHAR 0049
ENCODING 73
SWIDTH 260 0
DWIDTH 13 0
BBX 10 36 2 0
BITMAP
FFC0
FFC0
7F00
3E00
1E00
1E00
1E00
1E00
1E00
1E00
1E00
1E00
1E00
1E00
1E00
1E00
1E00
1E00
1E00
1E00
1E00
1E00
1E00
1E00
1E00
1E00
1E00
1E00
1E00
1E00
1E00
1E00
3E00
7F80
FFC0
FFC0
ENDCHAR
STARTCHAR 004A
ENCODING 74
SWIDTH 440 0
DWIDTH 22 0
BBX 21 37 0 -1
BITMAP
001FF8
001FF8
0007F0
0003E0
0003E0
0003E0
0003E0
0003E0
0003E0
0003E0
0003E0
0003E0
0003E0
0003E0
0003E0
0003E0
0003E0
0003E0
0003E0
0003E0
0003E0
0003E0
0003E0
1C03E0
3E03E0
7E03E0
FE03E0
F803E0
E003E0
E003E0
E003C0
E003C0
F007C0
780F80
3FFF00
1FFE00
07F800
ENDCHAR
STARTCHAR 004B
ENCODING 75
SWIDTH 620 0
DWIDTH 31 0
BBX 30 36 2 0
BITMAP
FFC03FF8
FFC01FF0
7F000FE0
3E0007C0
3E000F80
3E000F00
3E001E00
3E003C00
3E007800
3E007000
3E00F000
3E01E000
3E03C000
3E078000
3E0F0000
3E1F8000
3E3FC000
3E7FE000
3EF3F000
3FE1F000
3FC0F800
3F007C00
3E007E00
3E003E00
3E001F00
3E001F00
3E000F80
3E0007C0
3E0007C0
3E0003E0
3E0003E0
3E0001F0
3E0001F0
7F0003FC
FFC007FC
FFC007FC
ENDCHAR
STARTCHAR 004C
ENCODING 76
SWIDTH 580 0
DWIDTH 29 0
BBX 27 36 2 0
BITMAP
FFC00000
FFC00000
7F000000
3E000000
3E000000
3E000000
3E000000
3E000000
3E000000
3E000000
3E000000
3E000000
3E000000
3E000000
3E000000
3E000000
3E000000
3E000000
3E000000
3E000000
3E000000
3E000000
3E000000
3E000000
3E000000
3E000000
3E000000
3E000000
3E000000
3E000000
3E000060
3E0000E0
3F0007E0
7FFFFFE0
FFFFFFE0
FFFFFFC0
ENDCHAR
STARTCHAR 004D
ENCODING 77
SWIDTH 820 0
DWIDTH 41 0
BBX 39 36 1 0
BITMAP
FF800003FE
FFC00003FE
3FC00007FC
0FC00007F0
0FE00007F0
0FE0000FE0
0FF0000FE0
0EF0001FE0
0EF0001DE0
0E78001DE0
0E780039F0
0E7C0039F0
0E3C0079F0
0E3E0071F0
1E1E00F1F0
1E1E00E1F0
1E1F01E1F0
1E0F01C1F0
1E0F83C1F0
1E078381F0
1E07C781F0
1E03C781F0
1E03EF01F0
1E03EF01F0
1E01FE01F0
1E01FE01F0
1E00FC01F0
1E00FC01F0
1E007801F0
1E007801F0
1E003001F0
1E000001F0
1E000001F0
7F000003F8
FFC00007FE
FFC0000FFE
ENDCHAR
STARTCHAR 004E
ENCODING 78
SWIDTH 720 0
DWIDTH 36 0
BBX 35 36 0 0
BITMAP
FF80003FE0
FFC0003FE0
3FE0000F80
0FF0000780
0FF8000700
0EFC000700
0E7C000700
0E3E000700
0E3F000700
0E1F800700
0E0FC00700
0E07C00700
0E03E00700
0E01F00700
0E01F80700
0E00F80700
0E007C0700
0E003E0700
0E003F0700
0E001F0700
0E000F8700
0E0007C700
0E0007C700
0E0003E700
0E0001F700
0E0001F700
0E0000FF00
0E00007F00
0E00007F00
0E00003F00
0F00001F00
0F00001F00
0F00000F00
3FC0000700
7FF0000700
7FE0000300
ENDCHAR
STARTCHAR 004F
ENCODING 79
SWIDTH 760 0
DWIDTH 38 0
BBX 35 38 2 -1
BITMAP
0007F80000
003FFF0000
00FFFFC000
01F807F000
03E001F800
07C0007C00
0F80003E00
1F00003E00
3E00001F00
3E00000F80
7C00000F80
7C00000F80
7C000007C0
F8000007C0
F8000007C0
F8000007C0
F8000007E0
F8000007E0
F8000003E0
F8000003E0
F8000007E0
F8000007E0
F8000007C0
F8000007C0
F8000007C0
7C000007C0
7C00000F80
7C00000F80
3E00000F80
3E00001F00
1F00001E00
0F80003E00
0FC0007C00
07E000F800
01F803F000
00FFFFC000
003FFF8000
000FFC0000
ENDCHAR
STARTCHAR 0050
ENCODING 80
SWIDTH 600 0
DWIDTH 30 0
BBX 28 36 2 0
BITMAP
FFFFE000
FFFFFC00
7FFFFF00
3F003F80
3E000FC0
3E0007E0
3E0003E0
3E0003E0
3E0003E0
3E0001F0
3E0003E0
3E0003E0
3E0003E0
3E0003E0
3E0007C0
3E000FC0
3E001F80
3E007F00
3E07FC00
3FFFF000
3FFFC000
3FF80000
3E000000
3E000000
3E000000
3E000000
3E000000
3E000000
3E000000
3E000000
3E000000
3E000000
3E000000
7F800000
FFC00000
FFC00000
ENDCHAR
STARTCHAR 0051
ENCODING 81
SWIDTH 760 0
DWIDTH 38 0
BBX 35 44 2 -7
BITMAP
0007F80000
003FFF0000
00FFFFC000
01F807F000
03E001F800
07C0007C00
0F80003E00
1F00003E00
3E00001F00
3E00000F80
7C00000F80
7C00000F80
7C000007C0
F8000007C0
F8000007C0
F8000007C0
F8000007C0
F8000007E0
F8000003E0
F8000003E0
F8000007E0
F8000007E0
F8000007C0
F8000007C0
F8000007C0
7C000007C0
7C00000F80
7C00000F80
3E00600F80
3E00601F00
1F00603E00
0F80603E00
0FC0607C00
07E071F800
03F833F000
00FFFFC000
003FFF0000
0007FE0000
00000F0000
000007C000
000003FFC0
000001FFC0
000000FFC0
0000003FC0
ENDCHAR
STARTCHAR 0052
ENCODING 82
SWIDTH 640 0
DWIDTH 32 0
BBX 30 36 2 0
BITMAP
FFFFF800
FFFFFF00
7FFFFFC0
3F001FE0
3E0007E0
3E0003F0
3E0003F0
3E0001F0
3E0001F0
3E0001F0
3E0001F0
3E0003E0
3E0007E0
3E000FC0
3E001F80
3E007F00
3E07FE00
3FFFF800
3FFFF000
3FFDF800
3E00FC00
3E007C00
3E003E00
3E003E00
3E001F00
3E000F00
3E000F80
3E000780
3E0007C0
3E0003C0
3E0003E0
3E0003E0
3E0003F0
7F8007F8
FFC00FFC
FFC00FFC
ENDCHAR
STARTCHAR 0053
ENCODING 83
SWIDTH 580 0
DWIDTH 29 0
BBX 26 38 1 -1
BITMAP
007F8000
01FFF800
07FFFC00
0F007E00
1E003F00
3C000F00
3C000700
38000700
78000000
78000000
78000000
7C000000
7C000000
3F000000
3F800000
1FF80000
1FFFC000
0FFFF800
03FFFE00
007FFF00
0007FF80
00007F80
00000FC0
000007C0
000003C0
000003C0
000001C0
C00001C0
E00001C0
E00003C0
F00003C0
F8000780
7C000780
3E001F00
1F807E00
0FFFFC00
03FFF000
00FFC000
ENDCHAR
STARTCHAR 0054
ENCODING 84
SWIDTH 600 0
DWIDTH 30 0
BBX 29 36 0 0
BITMAP
7FFFFFF8
7FFFFFF8
7FFFFFF8
FC0F80F8
F0078038
E0078018
C0078008
00078000
00078000
00078000
00078000
00078000
00078000
00078000
00078000
00078000
00078000
00078000
00078000
00078000
00078000
00078000
00078000
00078000
00078000
00078000
00078000
00078000
00078000
00078000
00078000
00078000
000F8000
001FC000
003FF000
003FF000
ENDCHAR
STARTCHAR 0055
ENCODING 85
SWIDTH 700 0
DWIDTH 35 0
BBX 33 37 1 -1
BITMAP
FFE001FF80
FFE001FF80
7FC000FE00
1F00003C00
1F00001C00
1F00001C00
1E00001C00
1E00001E00
1E00001E00
1E00001E00
1E00001E00
1E00001E00
3E00001E00
3E00001E00
3E00001E00
3E00001E00
3E00001E00
3E00001E00
3E00001E00
3E00001E00
3E00001E00
3E00001E00
3E00001E00
3E00001E00
3E00001E00
1E00001E00
1E00001C00
1E00001C00
1F00003C00
0F00003800
0F80007800
07C000F000
07E001F000
03F807E000
01FFFFC000
007FFF0000
001FF80000
ENDCHAR
STARTCHAR 0056
ENCODING 86
SWIDTH 640 0
DWIDTH 32 0
BBX 33 37 0 -1
BITMAP
FF8000FF80
FF8000FF00
7F00007F00
7E00001E00
3E00001E00
3E00001C00
3E00003C00
1E00003C00
1E00003C00
1F00003800
1F00007800
0F00007800
0F00007000
0F80007000
078000F000
078000E000
07C000E000
03C001E000
03E001C000
03E003C000
01E003C000
01F0038000
00F0078000
00F8070000
00F80F0000
007C0F0000
007C1E0000
003E1E0000
003E3C0000
001F3C0000
001F780000
000FF80000
000FF00000
0007E00000
0007E00000
0003C00000
0001800000
ENDCHAR
STARTCHAR 0057
ENCODING 87
SWIDTH 920 0
DWIDTH 46 0
BBX 46 37 0 -1
BITMAP
FFC01FF007FC
FFC01FF007FC
7F000FE001F8
3E0007C000F0
3E00078000F0
3E00078000E0
1E0007C000E0
1E0007C000E0
1E0007C000E0
1E0007C000E0
1F000FC001C0
0F000FE001C0
0F000FE001C0
0F000FE001C0
0F801DE001C0
07801DF00380
07801CF00380
078038F00380
07C038F80780
03C038780700
03C078780700
03C0707C0700
03E0703C0E00
01E0F03E0E00
01E0E03E0E00
01F1E01E1E00
00F1C01F1C00
00F1C00F3C00
00FBC00FBC00
00FB800FB800
007F8007F800
007F8007F800
007F0003F000
003F0003F000
003E0001E000
001E0001E000
000C0000C000
ENDCHAR
STARTCHAR 0058
ENCODING 88
SWIDTH 660 0
DWIDTH 33 0
BBX 32 36 1 0
BITMAP
FFC00FFC
FFC007F8
3F0003F0
1F0001E0
1F0001C0
0F8003C0
0F800380
07C00700
03E00F00
03E00E00
01F01C00
00F83C00
00FC7800
007E7000
003EE000
001FC000
001FC000
000FC000
000FE000
000FF000
001DF800
003CF800
00787C00
00703E00
00F01F00
01E01F00
01C00F80
03C007C0
078003C0
070003E0
0F0001F0
1E0001F0
1E0001F8
7F0001FC
FF8003FF
FF8003FF
ENDCHAR
STARTCHAR 0059
ENCODING 89
SWIDTH 640 0
DWIDTH 32 0
BBX 34 36 -1 0
BITMAP
FFC0007FC0
FFC0007F80
3F80003F00
1F00001F00
0F80001E00
0F80001C00
07C0003C00
07C0003800
03E0007000
01F0007000
01F000E000
00F801C000
007C01C000
007C038000
003E070000
001F0F0000
000F8E0000
000F9C0000
0007FC0000
0003F80000
0003F00000
0001F00000
0001F00000
0001F00000
0001F00000
0001F00000
0001F00000
0001F00000
0001F00000
0001F00000
0001F00000
0001F00000
0001F00000
0003F80000
000FFC0000
000FFC0000
ENDCHAR
STARTCHAR 005A
ENCODING 90
SWIDTH 540 0
DWIDTH 27 0
BBX 26 36 1 0
BITMAP
3FFFFF80
3FFFFF80
3FE03F80
3E000F80
38001F00
30001F00
00003E00
00003C00
00007C00
0000F800
0001F000
0001F000
0003E000
0007C000
0007C000
000F8000
001F0000
003E0000
003E0000
007C0000
00F80000
01F00000
01F00000
03E00000
07C00000
0F800000
0F800000
1F000000
3E000000
3E0000C0
7C0001C0
7C0007C0
F8001F80
FFFFFF80
FFFFFF80
FFFFFF80
ENDCHAR
STARTCHAR 005B
ENCODING 91
SWIDTH 320 0
DWIDTH 16 0
BBX 8 43 5 -7
BITMAP
FF
FF
FF
E0
E0
E0
E0
E0
E0
E0
E0
E0
E0
E0
E0
E0
E0
E0
E0
E0
E0
E0
E0
E0
E0
E0
E0
E0
E0
E0
E0
E0
E0
E0
E0
E0
E0
E0
E0
E0
E0
FF
FF
ENDCHAR
STARTCHAR 005C
ENCODING 92
SWIDTH 260 0
DWIDTH 13 0
BBX 14 42 -1 -5
BITMAP
C000
C000
C000
6000
6000
6000
3000
3000
3000
3800
1800
1800
1C00
0C00
0C00
0E00
0600
0600
0600
0300
0300
0300
0180
0180
0180
00C0
00C0
00C0
00E0
0060
0060
0070
0030
0030
0030
0018
0018
0018
000C
000C
000C
0004
ENDCHAR
STARTCHAR 005D
ENCODING 93
SWIDTH 320 0
DWIDTH 16 0
BBX 9 43 3 -7
BITMAP
FF00
FF80
FF80
0780
0780
0780
0780
0780
0780
0780
0780
0780
0780
0780
0780
0780
0780
0780
0780
0780
0780
0780
0780
0780
0780
0780
0780
0780
0780
0780
0780
0780
0780
0780
0780
0780
0780
0780
0780
0780
0780
FF80
FF80
ENDCHAR
STARTCHAR 005E
ENCODING 94
SWIDTH 1000 0
DWIDTH 50 0
BBX 28 14 11 22
BITMAP
000F0000
001F8000
003FC000
007FE000
00F9F000
01F0F800
03C03C00
07801E00
0F000F00
1E000780
3C0003C0
700001C0
60000060
C0000030
ENDCHAR
STARTCHAR 005F
ENCODING 95
SWIDTH 500 0
DWIDTH 25 0
BBX 25 3 0 -12
BITMAP
FFFFFF80
FFFFFF80
FFFFFF80
ENDCHAR
STARTCHAR 0060
ENCODING 96
SWIDTH 500 0
DWIDTH 25 0
BBX 11 9 6 26
BITMAP
E000
F000
F800
7C00
1E00
0F00
0380
01C0
0060
ENDCHAR
STARTCHAR 0061
ENCODING 97
SWIDTH 640 0
DWIDTH 32 0
BBX 33 37 0 0
BITMAP
0000800000
0001C00000
0003C00000
0007E00000
0007F00000
000FF00000
000FF80000
001EF80000
001C7C0000
001C7C0000
003C3E0000
00383E0000
00781F0000
00701F0000
00F00F0000
00E00F8000
00E00F8000
01E007C000
01C007C000
03C003C000
038003E000
038003E000
07FFFFE000
07FFFFF000
070001F000
0F0000F000
0E0000F800
1E00007800
1E00007800
1C00007C00
3C00003C00
3C00003C00
3C00003E00
7C00003E00
7E00007F00
FF0000FF80
FF0000FF80
ENDCHAR
STARTCHAR 0062
ENCODING 98
SWIDTH 660 0
DWIDTH 33 0
BBX 30 36 2 0
BITMAP
FFFFF800
FFFFFF00
7FFFFF80
3F000FC0
3E0007E0
3E0003E0
3E0003E0
3E0001E0
3E0001E0
3E0003E0
3E0003E0
3E0007C0
3E000FC0
3E001F80
3E007E00
3E01F800
3E1FF000
3FFFFF00
3FFC3FC0
3FC00FE0
3E0003F0
3E0001F8
3E0000F8
3E0000F8
3E00007C
3E00007C
3E00007C
3E00007C
3E0000FC
3E0000F8
3E0001F8
3E0003F0
3F000FE0
7FFFFFC0
FFFFFF80
FFFFFC00
ENDCHAR
STARTCHAR 0063
ENCODING 99
SWIDTH 680 0
DWIDTH 34 0
BBX 32 38 2 -1
BITMAP
0003FE00
001FFFC0
007FFFF8
01F803FC
03E000FC
07C0007C
0F80003C
1F00001C
3F00001C
3E00000C
7C00000C
7C000000
7C000000
F8000000
F8000000
F8000000
F8000000
F8000000
F8000000
F8000000
F8000000
F8000000
F8000000
F8000000
F8000000
FC000000
7C000000
7C000000
7E000002
3F000007
3F00000F
1F80001E
0FC0003C
07F000F8
03FE07F0
01FFFFE0
007FFF80
000FFC00
ENDCHAR
STARTCHAR 0064
ENCODING 100
SWIDTH 720 0
DWIDTH 36 0
BBX 32 36 2 0
BITMAP
FFFFE000
FFFFFC00
7FE7FF00
3F001FC0
3E0007E0
3E0003F0
3E0000F8
3E0000FC
3E00007C
3E00003E
3E00003E
3E00003F
3E00001F
3E00001F
3E00001F
3E00001F
3E00001F
3E00001F
3E00001F
3E00001F
3E00001F
3E00001F
3E00001F
3E00001F
3E00003E
3E00003E
3E00007E
3E00007C
3E0000FC
3E0001F8
3E0003F0
3E0007E0
3F003FC0
7FEFFF00
FFFFFC00
FFFFC000
ENDCHAR
STARTCHAR 0065
ENCODING 101
SWIDTH 600 0
DWIDTH 30 0
BBX 28 36 2 0
BITMAP
FFFFFFC0
FFFFFFC0
7FFFFFC0
3F0003C0
3E0000C0
3E000040
3E000000
3E000000
3E000000
3E000000
3E000000
3E000000
3E000000
3E000400
3E000E00
3FFFFE00
3FFFFE00
3FFFFE00
3E000E00
3E000000
3E000000
3E000000
3E000000
3E000000
3E000000
3E000000
3E000000
3E000000
3E000000
3E000030
3E000070
3E0000F0
3F0003F0
7FFFFFF0
FFFFFFF0
FFFFFFE0
ENDCHAR
STARTCHAR 0066
ENCODING 102
SWIDTH 560 0
DWIDTH 28 0
BBX 27 36 1 0
BITMAP
7FFFFFC0
7FFFFFC0
3FE3FFE0
1F0003E0
1F0000E0
1F000060
1F000000
1F000000
1F000000
1F000000
1F000000
1F000000
1F000000
1F000000
1F000000
1F000E00
1FFFFE00
1FFFFE00
1FFFFE00
1F000E00
1F000000
1F000000
1F000000
1F000000
1F000000
1F000000
1F000000
1F000000
1F000000
1F000000
1F000000
1F000000
1F000000
3FC00000
FFE00000
FFE00000
ENDCHAR
STARTCHAR 0067
ENCODING 103
SWIDTH 760 0
DWIDTH 38 0
BBX 34 38 2 -1
BITMAP
0001FF0000
000FFFF000
007FFFFC00
00FC00FE00
01F0003E00
03E0001F00
07C0000F00
0F80000700
1F00000700
3F00000300
3E00000000
7E00000000
7C00000000
7C00000000
FC00000000
F800000000
F800000000
F800000000
F800000000
F80007FF80
F80007FF80
F800001F80
F800000780
F800000780
F800000780
7C00000780
7C00000780
7E00000780
3E00000780
3F00000780
1F80000780
0F80000FC0
0FE0000F80
07F0001F80
01FC007F00
00FFEFFC00
003FFFE000
0007FF0000
ENDCHAR
STARTCHAR 0068
ENCODING 104
SWIDTH 760 0
DWIDTH 38 0
BBX 35 36 2 0
BITMAP
FFC0007FE0
FFC0007FE0
7F00003F80
3E00001F00
3E00000F00
3E00000F00
3E00000F00
3E00000F00
3E00000F00
3E00000F00
3E00000F00
3E00000F00
3E00000F00
3E00000F00
3E00000F00
3FFFFFFF00
3FFFFFFF00
3FFFFFFF00
3E00000F00
3E00000F00
3E00000F00
3E00000F00
3E00000F00
3E00000F00
3E00000F00
3E00000F00
3E00000F00
3E00000F00
3E00000F00
3E00000F00
3E00000F00
3E00000F00
3E00001F00
7F00003FC0
FFC0007FE0
FFC0007FE0
ENDCHAR
STARTCHAR 0069
ENCODING 105
SWIDTH 260 0
DWIDTH 13 0
BBX 10 36 2 0
BITMAP
FFC0
FFC0
7F00
3E00
1E00
1E00
1E00
1E00
1E00
1E00
1E00
1E00
1E00
1E00
1E00
1E00
1E00
1E00
1E00
1E00
1E00
1E00
1E00
1E00
1E00
1E00
1E00
1E00
1E00
1E00
1E00
1E00
3E00
7F80
FFC0
FFC0
ENDCHAR
STARTCHAR 006A
ENCODING 106
SWIDTH 440 0
DWIDTH 22 0
BBX 21 37 0 -1
BITMAP
001FF8
001FF8
0007F0
0003E0
0003E0
0003E0
0003E0
0003E0
0003E0
0003E0
0003E0
0003E0
0003E0
0003E0
0003E0
0003E0
0003E0
0003E0
0003E0
0003E0
0003E0
0003E0
0003E0
1C03E0
3E03E0
7E03E0
FE03E0
F803E0
E003E0
E003E0
E003C0
E003C0
F007C0
780F80
3FFF00
1FFE00
07F800
ENDCHAR
STARTCHAR 006B
ENCODING 107
SWIDTH 620 0
DWIDTH 31 0
BBX 30 36 2 0
BITMAP
FFC03FF8
FFC01FF0
7F000FE0
3E0007C0
3E000F80
3E000F00
3E001E00
3E003C00
3E007800
3E007000
3E00F000
3E01E000
3E03C000
3E078000
3E0F0000
3E1F8000
3E3FC000
3E7FE000
3EF3F000
3FE1F000
3FC0F800
3F007C00
3E007E00
3E003E00
3E001F00
3E001F00
3E000F80
3E0007C0
3E0007C0
3E0003E0
3E0003E0
3E0001F0
3E0001F0
7F0003FC
FFC007FC
FFC007FC
ENDCHAR
STARTCHAR 006C
ENCODING 108
SWIDTH 580 0
DWIDTH 29 0
BBX 27 36 2 0
BITMAP
FFC00000
FFC00000
7F000000
3E000000
3E000000
3E000000
3E000000
3E000000
3E000000
3E000000
3E000000
3E000000
3E000000
3E000000
3E000000
3E000000
3E000000
3E000000
3E000000
3E000000
3E000000
3E000000
3E000000
3E000000
3E000000
3E000000
3E000000
3E000000
3E000000
3E000000
3E000060
3E0000E0
3F0007E0
7FFFFFE0
FFFFFFE0
FFFFFFC0
ENDCHAR
STARTCHAR 006D
ENCODING 109
SWIDTH 820 0
DWIDTH 41 0
BBX 39 36 1 0
BITMAP
FF800003FE
FFC00003FE
3FC00007FC
0FC00007F0
0FE00007F0
0FE0000FE0
0FF0000FE0
0EF0001FE0
0EF0001DE0
0E78001DE0
0E780039F0
0E7C0039F0
0E3C0079F0
0E3E0071F0
1E1E00F1F0
1E1E00E1F0
1E1F01E1F0
1E0F01C1F0
1E0F83C1F0
1E078381F0
1E07C781F0
1E03C781F0
1E03EF01F0
1E03EF01F0
1E01FE01F0
1E01FE01F0
1E00FC01F0
1E00FC01F0
1E007801F0
1E007801F0
1E003001F0
1E000001F0
1E000001F0
7F000003F8
FFC00007FE
FFC0000FFE
ENDCHAR
STARTCHAR 006E
ENCODING 110
SWIDTH 720 0
DWIDTH 36 0
BBX 35 36 0 0
BITMAP
FF80003FE0
FFC0003FE0
3FE0000F80
0FF0000780
0FF8000700
0EFC000700
0E7C000700
0E3E000700
0E3F000700
0E1F800700
0E0FC00700
0E07C00700
0E03E00700
0E01F00700
0E01F80700
0E00F80700
0E007C0700
0E003E0700
0E003F0700
0E001F0700
0E000F8700
0E0007C700
0E0007C700
0E0003E700
0E0001F700
0E0001F700
0E0000FF00
0E00007F00
0E00007F00
0E00003F00
0F00001F00
0F00001F00
0F00000F00
3FC0000700
7FF0000700
7FE0000300
ENDCHAR
STARTCHAR 006F
ENCODING 111
SWIDTH 760 0
DWIDTH 38 0
BBX 35 38 2 -1
BITMAP
0007F80000
003FFF0000
00FFFFC000
01F807F000
03E001F800
07C0007C00
0F80003E00
1F00003E00
3E00001F00
3E00000F80
7C00000F80
7C00000F80
7C000007C0
F8000007C0
F8000007C0
F8000007C0
F8000007E0
F8000007E0
F8000003E0
F8000003E0
F8000007E0
F8000007E0
F8000007C0
F8000007C0
F8000007C0
7C000007C0
7C00000F80
7C00000F80
3E00000F80
3E00001F00
1F00001E00
0F80003E00
0FC0007C00
07E000F800
01F803F000
00FFFFC000
003FFF8000
000FFC0000
ENDCHAR
STARTCHAR 0070
ENCODING 112
SWIDTH 600 0
DWIDTH 30 0
BBX 28 36 2 0
BITMAP
FFFFE000
FFFFFC00
7FFFFF00
3F003F80
3E000FC0
3E0007E0
3E0003E0
3E0003E0
3E0003E0
3E0001F0
3E0003E0
3E0003E0
3E0003E0
3E0003E0
3E0007C0
3E000FC0
3E001F80
3E007F00
3E07FC00
3FFFF000
3FFFC000
3FF80000
3E000000
3E000000
3E000000
3E000000
3E000000
3E000000
3E000000
3E000000
3E000000
3E000000
3E000000
7F800000
FFC00000
FFC00000
ENDCHAR
STARTCHAR 0071
ENCODING 113
SWIDTH 760 0
DWIDTH 38 0
BBX 35 44 2 -7
BITMAP
0007F80000
003FFF0000
00FFFFC000
01F807F000
03E001F800
07C0007C00
0F80003E00
1F00003E00
3E00001F00
3E00000F80
7C00000F80
7C00000F80
7C000007C0
F8000007C0
F8000007C0
F8000007C0
F8000007C0
F8000007E0
F8000003E0
F8000003E0
F8000007E0
F8000007E0
F8000007C0
F8000007C0
F8000007C0
7C000007C0
7C00000F80
7C00000F80
3E00600F80
3E00601F00
1F00603E00
0F80603E00
0FC0607C00
07E071F800
03F833F000
00FFFFC000
003FFF0000
0007FE0000
00000F0000
000007C000
000003FFC0
000001FFC0
000000FFC0
0000003FC0
ENDCHAR
STARTCHAR 0072
ENCODING 114
SWIDTH 640 0
DWIDTH 32 0
BBX 30 36 2 0
BITMAP
FFFFF800
FFFFFF00
7FFFFFC0
3F001FE0
3E0007E0
3E0003F0
3E0003F0
3E0001F0
3E0001F0
3E0001F0
3E0001F0
3E0003E0
3E0007E0
3E000FC0
3E001F80
3E007F00
3E07FE00
3FFFF800
3FFFF000
3FFDF800
3E00FC00
3E007C00
3E003E00
3E003E00
3E001F00
3E000F00
3E000F80
3E000780
3E0007C0
3E0003C0
3E0003E0
3E0003E0
3E0003F0
7F8007F8
FFC00FFC
FFC00FFC
ENDCHAR
STARTCHAR 0073
ENCODING 115
SWIDTH 580 0
DWIDTH 29 0
BBX 26 38 1 -1
BITMAP
007F8000
01FFF800
07FFFC00
0F007E00
1E003F00
3C000F00
3C000700
38000700
78000000
78000000
78000000
7C000000
7C000000
3F000000
3F800000
1FF80000
1FFFC000
0FFFF800
03FFFE00
007FFF00
0007FF80
00007F80
00000FC0
000007C0
000003C0
000003C0
000001C0
C00001C0
E00001C0
E00003C0
F00003C0
F8000780
7C000780
3E001F00
1F807E00
0FFFFC00
03FFF000
00FFC000
ENDCHAR
STARTCHAR 0074
ENCODING 116
SWIDTH 600 0
DWIDTH 30 0
BBX 29 36 0 0
BITMAP
7FFFFFF8
7FFFFFF8
7FFFFFF8
FC0F80F8
F0078038
E0078018
C0078008
00078000
00078000
00078000
00078000
00078000
00078000
00078000
00078000
00078000
00078000
00078000
00078000
00078000
00078000
00078000
00078000
00078000
00078000
00078000
00078000
00078000
00078000
00078000
00078000
00078000
000F8000
001FC000
003FF000
003FF000
ENDCHAR
STARTCHAR 0075
ENCODING 117
SWIDTH 700 0
DWIDTH 35 0
BBX 33 37 1 -1
BITMAP
FFE001FF80
FFE001FF80
7FC000FE00
1F00003C00
1F00001C00
1F00001C00
1E00001C00
1E00001E00
1E00001E00
1E00001E00
1E00001E00
1E00001E00
3E00001E00
3E00001E00
3E00001E00
3E00001E00
3E00001E00
3E00001E00
3E00001E00
3E00001E00
3E00001E00
3E00001E00
3E00001E00
3E00001E00
3E00001E00
1E00001E00
1E00001C00
1E00001C00
1F00003C00
0F00003800
0F80007800
07C000F000
07E001F000
03F807E000
01FFFFC000
007FFF0000
001FF80000
ENDCHAR
STARTCHAR 0076
ENCODING 118
SWIDTH 640 0
DWIDTH 32 0
BBX 33 37 0 -1
BITMAP
FF8000FF80
FF8000FF00
7F00007F00
7E00001E00
3E00001E00
3E00001C00
3E00003C00
1E00003C00
1E00003C00
1F00003800
1F00007800
0F00007800
0F00007000
0F80007000
078000F000
078000E000
07C000E000
03C001E000
03E001C000
03E003C000
01E003C000
01F0038000
00F0078000
00F8070000
00F80F0000
007C0F0000
007C1E0000
003E1E0000
003E3C0000
001F3C0000
001F780000
000FF80000
000FF00000
0007E00000
0007E00000
0003C00000
0001800000
ENDCHAR
STARTCHAR 0077
ENCODING 119
SWIDTH 920 0
DWIDTH 46 0
BBX 46 37 0 -1
BITMAP
FFC01FF007FC
FFC01FF007FC
7F000FE001F8
3E0007C000F0
3E00078000F0
3E00078000E0
1E0007C000E0
1E0007C000E0
1E0007C000E0
1E0007C000E0
1F000FC001C0
0F000FE001C0
0F000FE001C0
0F000FE001C0
0F801DE001C0
07801DF00380
07801CF00380
078038F00380
07C038F80780
03C038780700
03C078780700
03C0707C0700
03E0703C0E00
01E0F03E0E00
01E0E03E0E00
01F1E01E1E00
00F1C01F1C00
00F1C00F3C00
00FBC00FBC00
00FB800FB800
007F8007F800
007F8007F800
007F0003F000
003F0003F000
003E0001E000
001E0001E000
000C0000C000
ENDCHAR
STARTCHAR 0078
ENCODING 120
SWIDTH 660 0
DWIDTH 33 0
BBX 32 36 1 0
BITMAP
FFC00FFC
FFC007F8
3F0003F0
1F0001E0
1F0001C0
0F8003C0
0F800380
07C00700
03E00F00
03E00E00
01F01C00
00F83C00
00FC7800
007E7000
003EE000
001FC000
001FC000
000FC000
000FE000
000FF000
001DF800
003CF800
00787C00
00703E00
00F01F00
01E01F00
01C00F80
03C007C0
078003C0
070003E0
0F0001F0
1E0001F0
1E0001F8
7F0001FC
FF8003FF
FF8003FF
ENDCHAR
STARTCHAR 0079
ENCODING 121
SWIDTH 640 0
DWIDTH 32 0
BBX 34 36 -1 0
BITMAP
FFC0007FC0
FFC0007F80
3F80003F00
1F00001F00
0F80001E00
0F80001C00
07C0003C00
07C0003800
03E0007000
01F0007000
01F000E000
00F801C000
007C01C000
007C038000
003E070000
001F0F0000
000F8E0000
000F9C0000
0007FC0000
0003F80000
0003F00000
0001F00000
0001F00000
0001F00000
0001F00000
0001F00000
0001F00000
0001F00000
0001F00000
0001F00000
0001F00000
0001F00000
0001F00000
0003F80000
000FFC0000
000FFC0000
ENDCHAR
STARTCHAR 007A
ENCODING 122
SWIDTH 540 0
DWIDTH 27 0
BBX 26 36 1 0
BITMAP
3FFFFF80
3FFFFF80
3FE03F80
3E000F80
38001F00
30001F00
00003E00
00003C00
00007C00
0000F800
0001F000
0001F000
0003E000
0007C000
0007C000
000F8000
001F0000
003E0000
003E0000
007C0000
00F80000
01F00000
01F00000
03E00000
07C00000
0F800000
0F800000
1F000000
3E000000
3E0000C0
7C0001C0
7C0007C0
F8001F80
FFFFFF80
FFFFFF80
FFFFFF80
ENDCHAR
STARTCHAR 007B
ENCODING 123
SWIDTH 500 0
DWIDTH 25 0
BBX 17 43 4 -6
BITMAP
000F80
003C00
007000
00E000
00E000
01E000
01E000
01E000
01E000
01E000
01E000
01E000
01E000
01E000
01C000
01C000
01C000
01C000
038000
070000
3E0000
F00000
1E0000
070000
038000
01C000
01C000
01C000
01C000
01E000
01E000
01E000
01E000
01E000
01E000
01E000
01E000
01E000
00E000
00E000
007000
003E00
000F80
ENDCHAR
STARTCHAR 007C
ENCODING 124
SWIDTH 500 0
DWIDTH 25 0
BBX 3 50 11 -12
BITMAP
E0
E0
E0
E0
E0
E0
E0
E0
E0
E0
E0
E0
E0
E0
E0
E0
E0
E0
E0
E0
E0
E0
E0
E0
E0
E0
E0
E0
E0
E0
E0
E0
E0
E0
E0
E0
E0
E0
E0
E0
E0
E0
E0
E0
E0
E0
E0
E0
E0
E0
ENDCHAR
STARTCHAR 007D
ENCODING 125
SWIDTH 500 0
DWIDTH 25 0
BBX 17 43 4 -6
BITMAP
F80000
1E0000
070000
038000
038000
03C000
03C000
03C000
03C000
03C000
03C000
03C000
03C000
03C000
01C000
01C000
01C000
01C000
00E000
007000
003E00
000780
003C00
007000
00E000
01C000
01C000
01C000
03C000
03C000
03C000
03C000
03C000
03C000
03C000
03C000
03C000
03C000
038000
038000
070000
3E0000
F80000
ENDCHAR
STARTCHAR 007E
ENCODING 126
SWIDTH 820 0
DWIDTH 41 0
BBX 33 7 4 12
BITMAP
03FC000080
0FFF800380
3FFFF00F80
FC03FFFF00
F0007FFC00
C0000FF000
8000000000
ENDCHAR
STARTCHAR 0080
ENCODING 128
SWIDTH 640 0
DWIDTH 32 0
BBX 33 48 0 0
BITMAP
0038000000
003C000000
003E000000
001F000000
0007800000
0001C00000
0000E00000
0000300000
0000000000
0000000000
0000000000
0000800000
0001C00000
0003C00000
0007E00000
0007F00000
000FF00000
000FF80000
001EF80000
001C7C0000
001C7C0000
003C3E0000
00383E0000
00781F0000
00701F0000
00F00F0000
00E00F8000
00E00F8000
01E007C000
01C007C000
03C003C000
038003E000
038003E000
07FFFFE000
07FFFFF000
070001F000
0F0000F000
0E0000F800
1E00007800
1E00007800
1C00007C00
3C00003C00
3C00003C00
3C00003E00
7C00003E00
7E00007F00
FF0000FF80
FF0000FF80
ENDCHAR
STARTCHAR 0081
ENCODING 129
SWIDTH 640 0
DWIDTH 32 0
BBX 33 51 0 0
BITMAP
0001C00000
0002300000
0006100000
0006180000
0000180000
0000100000
0000300000
0000E00000
0001800000
0001000000
0001000000
0000000000
0000000000
0000000000
0000800000
0001C00000
0003C00000
0007E00000
0007F00000
000FF00000
000FF80000
001EF80000
001C7C0000
001C7C0000
003C3E0000
00383E0000
00781F0000
00701F0000
00F00F0000
00E00F8000
00E00F8000
01E007C000
01C007C000
03C003C000
038003E000
038003E000
07FFFFE000
07FFFFF000
070001F000
0F0000F000
0E0000F800
1E00007800
1E00007800
1C00007C00
3C00003C00
3C00003C00
3C00003E00
7C00003E00
7E00007F00
FF0000FF80
FF0000FF80
ENDCHAR
STARTCHAR 008D
ENCODING 141
SWIDTH 640 0
DWIDTH 32 0
BBX 33 55 0 0
BITMAP
0000018000
000003C000
0000078000
00000F8000
00001E0000
0000380000
0000700000
0000C00000
0001800000
0040040000
0020040000
00300C0000
003EF80000
001FF00000
000FE00000
0000000000
0000000000
0000000000
0000800000
0001C00000
0003C00000
0007E00000
0007F00000
000FF00000
000FF80000
001EF80000
001C7C0000
001C7C0000
003C3E0000
00383E0000
00781F0000
00701F0000
00F00F0000
00E00F8000
00E00F8000
01E007C000
01C007C000
03C003C000
038003E000
038003E000
07FFFFE000
07FFFFF000
070001F000
0F0000F000
0E0000F800
1E00007800
1E00007800
1C00007C00
3C00003C00
3C00003C00
3C00003E00
7C00003E00
7E00007F00
FF0000FF80
FF0000FF80
ENDCHAR
STARTCHAR 008E
ENCODING 142
SWIDTH 640 0
DWIDTH 32 0
BBX 33 55 0 0
BITMAP
03C0000000
03E0000000
01F0000000
00F8000000
0078000000
001C000000
000E000000
0003000000
0000800000
0040040000
0020040000
00300C0000
003EF80000
001FF00000
000FE00000
0000000000
0000000000
0000000000
0000800000
0001C00000
0003C00000
0007E00000
0007F00000
000FF00000
000FF80000
001EF80000
001C7C0000
001C7C0000
003C3E0000
00383E0000
00781F0000
00701F0000
00F00F0000
00E00F8000
00E00F8000
01E007C000
01C007C000
03C003C000
038003E000
038003E000
07FFFFE000
07FFFFF000
070001F000
0F0000F000
0E0000F800
1E00007800
1E00007800
1C00007C00
3C00003C00
3C00003C00
3C00003E00
7C00003E00
7E00007F00
FF0000FF80
FF0000FF80
ENDCHAR
STARTCHAR 008F
ENCODING 143
SWIDTH 640 0
DWIDTH 32 0
BBX 33 57 0 0
BITMAP
0001E00000
0006300000
0006100000
0004100000
0000100000
0000100000
0000300000
0000E00000
0001800000
0001000000
0001000000
0040040000
0020040000
00300C0000
003EF80000
001FF00000
000FE00000
0000000000
0000000000
0000000000
0000800000
0001C00000
0003C00000
0007E00000
0007F00000
000FF00000
000FF80000
001EF80000
001C7C0000
001C7C0000
003C3E0000
00383E0000
00781F0000
00701F0000
00F00F0000
00E00F8000
00E00F8000
01E007C000
01C007C000
03C003C000
038003E000
038003E000
07FFFFE000
07FFFFF000
070001F000
0F0000F000
0E0000F800
1E00007800
1E00007800
1C00007C00
3C00003C00
3C00003C00
3C00003E00
7C00003E00
7E00007F00
FF0000FF80
FF0000FF80
ENDCHAR
STARTCHAR 0090
ENCODING 144
SWIDTH 600 0
DWIDTH 30 0
BBX 30 54 2 0
BITMAP
0000001C
0000003C
0000007C
000000F0
000001E0
00000380
000F0700
000F8C00
001F9000
003DC000
0038E000
00706000
00E03000
00C01800
00000000
00000000
00000000
00000000
FFFFFFC0
FFFFFFC0
7FFFFFC0
3F0003C0
3E0000C0
3E000040
3E000000
3E000000
3E000000
3E000000
3E000000
3E000000
3E000000
3E000400
3E000E00
3FFFFE00
3FFFFE00
3FFFFE00
3E000E00
3E000000
3E000000
3E000000
3E000000
3E000000
3E000000
3E000000
3E000000
3E000000
3E000000
3E000030
3E000070
3E0000F0
3F0003F0
7FFFFFF0
FFFFFFF0
FFFFFFE0
ENDCHAR
STARTCHAR 009D
ENCODING 157
SWIDTH 760 0
DWIDTH 38 0
BBX 35 52 2 -1
BITMAP
000003C000
000007C000
00000FC000
00001F0000
00001E0000
0000380000
0000601E00
0000C03100
0001002180
0000000180
0000000180
0000000100
0000000700
0000001E00
0007F82000
003FFF2000
00FFFFC000
01F807F000
03E001F800
07C0007C00
0F80003E00
1F00003E00
3E00001F00
3E00000F80
7C00000F80
7C00000F80
7C000007C0
F8000007C0
F8000007C0
F8000007C0
F8000007E0
F8000007E0
F8000003E0
F8000003E0
F8000007E0
F8000007E0
F8000007C0
F8000007C0
F8000007C0
7C000007C0
7C00000F80
7C00000F80
3E00000F80
3E00001F00
1F00001E00
0F80003E00
0FC0007C00
07E000F800
01F803F000
00FFFFC000
003FFF8000
000FFC0000
ENDCHAR
STARTCHAR 009E
ENCODING 158
SWIDTH 760 0
DWIDTH 38 0
BBX 35 53 2 -1
BITMAP
0010000000
0038000000
003C000000
003E000000
000F000000
0007800000
0001C00000
0000601E00
0000303100
0000002180
0000000180
0000000180
0000000100
0000000700
0000001E00
0007F82000
003FFF2000
00FFFFC000
01F807F000
03E001F800
07C0007C00
0F80003E00
1F00003E00
3E00001F00
3E00000F80
7C00000F80
7C00000F80
7C000007C0
F8000007C0
F8000007C0
F8000007C0
F8000007E0
F8000007E0
F8000003E0
F8000003E0
F8000007E0
F8000007E0
F8000007C0
F8000007C0
F8000007C0
7C000007C0
7C00000F80
7C00000F80
3E00000F80
3E00001F00
1F00001E00
0F80003E00
0FC0007C00
07E000F800
01F803F000
00FFFFC000
003FFF8000
000FFC0000
ENDCHAR
STARTCHAR 00A0
ENCODING 160
SWIDTH 540 0
DWIDTH 27 0
BBX 0 0 0 0
BITMAP
ENDCHAR
STARTCHAR 00A1
ENCODING 161
SWIDTH 640 0
DWIDTH 32 0
BBX 33 55 0 0
BITMAP
0000018000
000003C000
0000078000
00000F8000
00001E0000
0000380000
0000700000
0000C00000
0001800000
0040040000
0020040000
00300C0000
003EF80000
001FF00000
000FE00000
0000000000
0000000000
0000000000
0000800000
0001C00000
0003C00000
0007E00000
0007F00000
000FF00000
000FF80000
001EF80000
001C7C0000
001C7C0000
003C3E0000
00383E0000
00781F0000
00701F0000
00F00F0000
00E00F8000
00E00F8000
01E007C000
01C007C000
03C003C000
038003E000
038003E000
07FFFFE000
07FFFFF000
070001F000
0F0000F000
0E0000F800
1E00007800
1E00007800
1C00007C00
3C00003C00
3C00003C00
3C00003E00
7C00003E00
7E00007F00
FF0000FF80
FF0000FF80
ENDCHAR
STARTCHAR 00A2
ENCODING 162
SWIDTH 640 0
DWIDTH 32 0
BBX 33 55 0 0
BITMAP
03C0000000
03E0000000
01F0000000
00F8000000
0078000000
001C000000
000E000000
0003000000
0000800000
0040040000
0020040000
00300C0000
003EF80000
001FF00000
000FE00000
0000000000
0000000000
0000000000
0000800000
0001C00000
0003C00000
0007E00000
0007F00000
000FF00000
000FF80000
001EF80000
001C7C0000
001C7C0000
003C3E0000
00383E0000
00781F0000
00701F0000
00F00F0000
00E00F8000
00E00F8000
01E007C000
01C007C000
03C003C000
038003E000
038003E000
07FFFFE000
07FFFFF000
070001F000
0F0000F000
0E0000F800
1E00007800
1E00007800
1C00007C00
3C00003C00
3C00003C00
3C00003E00
7C00003E00
7E00007F00
FF0000FF80
FF0000FF80
ENDCHAR
STARTCHAR 00A3
ENCODING 163
SWIDTH 640 0
DWIDTH 32 0
BBX 33 57 0 0
BITMAP
0001E00000
0006300000
0006100000
0004100000
0000100000
0000100000
0000300000
0000E00000
0001800000
0001000000
0001000000
0040040000
0020040000
00300C0000
003EF80000
001FF00000
000FE00000
0000000000
0000000000
0000000000
0000800000
0001C00000
0003C00000
0007E00000
0007F00000
000FF00000
000FF80000
001EF80000
001C7C0000
001C7C0000
003C3E0000
00383E0000
00781F0000
00701F0000
00F00F0000
00E00F8000
00E00F8000
01E007C000
01C007C000
03C003C000
038003E000
038003E000
07FFFFE000
07FFFFF000
070001F000
0F0000F000
0E0000F800
1E00007800
1E00007800
1C00007C00
3C00003C00
3C00003C00
3C00003E00
7C00003E00
7E00007F00
FF0000FF80
FF0000FF80
ENDCHAR
STARTCHAR 00A4
ENCODING 164
SWIDTH 640 0
DWIDTH 32 0
BBX 33 55 0 0
BITMAP
0000020000
0007020000
001FFE0000
003FFC0000
0033F80000
0020000000
0060000000
0000000000
0000000000
0040040000
0020040000
00300C0000
003EF80000
001FF00000
000FE00000
0000000000
0000000000
0000000000
0000800000
0001C00000
0003C00000
0007E00000
0007F00000
000FF00000
000FF80000
001EF80000
001C7C0000
001C7C0000
003C3E0000
00383E0000
00781F0000
00701F0000
00F00F0000
00E00F8000
00E00F8000
01E007C000
01C007C000
03C003C000
038003E000
038003E000
07FFFFE000
07FFFFF000
070001F000
0F0000F000
0E0000F800
1E00007800
1E00007800
1C00007C00
3C00003C00
3C00003C00
3C00003E00
7C00003E00
7E00007F00
FF0000FF80
FF0000FF80
ENDCHAR
STARTCHAR 00A5
ENCODING 165
SWIDTH 640 0
DWIDTH 32 0
BBX 33 54 0 -8
BITMAP
0040040000
0020040000
00300C0000
003EF80000
001FF00000
000FE00000
0000000000
0000000000
0000000000
0000800000
0001C00000
0003C00000
0007E00000
0007F00000
000FF00000
000FF80000
001EF80000
001C7C0000
001C7C0000
003C3E0000
00383E0000
00781F0000
00701F0000
00F00F0000
00E00F8000
00E00F8000
01E007C000
01C007C000
03C003C000
038003E000
038003E000
07FFFFE000
07FFFFF000
070001F000
0F0000F000
0E0000F800
1E00007800
1E00007800
1C00007C00
3C00003C00
3C00003C00
3C00003E00
7C00003E00
7E00007F00
FF0000FF80
FF0000FF80
0000000000
0000000000
0003000000
0007800000
000F800000
000FC00000
0007800000
0003000000
ENDCHAR
STARTCHAR 00A6
ENCODING 166
SWIDTH 760 0
DWIDTH 38 0
BBX 35 55 2 -1
BITMAP
0000010000
000FF70000
001FFE0000
0019FC0000
0030100000
0030000000
0000000000
0000000000
0000000000
0000001E00
0000003100
0000002180
0000000180
0000000180
0000000100
0000000700
0000001E00
0007F82000
003FFF2000
00FFFFC000
01F807F000
03E001F800
07C0007C00
0F80003E00
1F00003E00
3E00001F00
3E00000F80
7C00000F80
7C00000F80
7C000007C0
F8000007C0
F8000007C0
F8000007C0
F8000007E0
F8000007E0
F8000003E0
F8000003E0
F8000007E0
F8000007E0
F8000007C0
F8000007C0
F8000007C0
7C000007C0
7C00000F80
7C00000F80
3E00000F80
3E00001F00
1F00001E00
0F80003E00
0FC0007C00
07E000F800
01F803F000
00FFFFC000
003FFF8000
000FFC0000
ENDCHAR
STARTCHAR 00A7
ENCODING 167
SWIDTH 760 0
DWIDTH 38 0
BBX 35 52 2 -1
BITMAP
000003C000
000007C000
00000FC000
00001F0000
00001E0000
0000380000
0000601E00
0000C03100
0001002180
0000000180
0000000180
0000000100
0000000700
0000001E00
0007F82000
003FFF2000
00FFFFC000
01F807F000
03E001F800
07C0007C00
0F80003E00
1F00003E00
3E00001F00
3E00000F80
7C00000F80
7C00000F80
7C000007C0
F8000007C0
F8000007C0
F8000007C0
F8000007E0
F8000007E0
F8000003E0
F8000003E0
F8000007E0
F8000007E0
F8000007C0
F8000007C0
F8000007C0
7C000007C0
7C00000F80
7C00000F80
3E00000F80
3E00001F00
1F00001E00
0F80003E00
0FC0007C00
07E000F800
01F803F000
00FFFFC000
003FFF8000
000FFC0000
ENDCHAR
STARTCHAR 00A8
ENCODING 168
SWIDTH 700 0
DWIDTH 35 0
BBX 33 49 1 -1
BITMAP
001C000000
003E000000
001F000000
000F800000
0003C00000
0001E00000
0000700000
0000180000
0000000000
0000000000
0000000000
0000000000
FFE001FF80
FFE001FF80
7FC000FE00
1F00003C00
1F00001C00
1F00001C00
1E00001C00
1E00001E00
1E00001E00
1E00001E00
1E00001E00
1E00001E00
3E00001E00
3E00001E00
3E00001E00
3E00001E00
3E00001E00
3E00001E00
3E00001E00
3E00001E00
3E00001E00
3E00001E00
3E00001E00
3E00001E00
3E00001E00
1E00001E00
1E00001C00
1E00001C00
1F00003C00
0F00003800
0F80007800
07C000F000
07E001F000
03F807E000
01FFFFC000
007FFF0000
001FF80000
ENDCHAR
STARTCHAR 00A9
ENCODING 169
SWIDTH 760 0
DWIDTH 38 0
BBX 35 53 2 -1
BITMAP
0010000000
0038000000
003C000000
003E000000
000F000000
0007800000
0001C00000
0000601E00
0000303100
0000002180
0000000180
0000000180
0000000100
0000000700
0000001E00
0007F82000
003FFF2000
00FFFFC000
01F807F000
03E001F800
07C0007C00
0F80003E00
1F00003E00
3E00001F00
3E00000F80
7C00000F80
7C00000F80
7C000007C0
F8000007C0
F8000007C0
F8000007C0
F8000007E0
F8000007E0
F8000003E0
F8000003E0
F8000007E0
F8000007E0
F8000007C0
F8000007C0
F8000007C0
7C000007C0
7C00000F80
7C00000F80
3E00000F80
3E00001F00
1F00001E00
0F80003E00
0FC0007C00
07E000F800
01F803F000
00FFFFC000
003FFF8000
000FFC0000
ENDCHAR
STARTCHAR 00AA
ENCODING 170
SWIDTH 760 0
DWIDTH 38 0
BBX 35 55 2 -1
BITMAP
0000F00000
0001080000
00030C0000
00010C0000
00000C0000
00000C0000
0000180000
0000380000
0000600000
0000401E00
0000403100
0000002180
0000000180
0000000180
0000000100
0000000700
0000001E00
0007F82000
003FFF2000
00FFFFC000
01F807F000
03E001F800
07C0007C00
0F80003E00
1F00003E00
3E00001F00
3E00000F80
7C00000F80
7C00000F80
7C000007C0
F8000007C0
F8000007C0
F8000007C0
F8000007E0
F8000007E0
F8000003E0
F8000003E0
F8000007E0
F8000007E0
F8000007C0
F8000007C0
F8000007C0
7C000007C0
7C00000F80
7C00000F80
3E00000F80
3E00001F00
1F00001E00
0F80003E00
0FC0007C00
07E000F800
01F803F000
00FFFFC000
003FFF8000
000FFC0000
ENDCHAR
STARTCHAR 00AB
ENCODING 171
SWIDTH 760 0
DWIDTH 38 0
BBX 35 55 2 -1
BITMAP
0000010000
000FF70000
001FFE0000
0019FC0000
0030100000
0030000000
0000000000
0000000000
0000000000
0000001E00
0000003100
0000002180
0000000180
0000000180
0000000100
0000000700
0000001E00
0007F82000
003FFF2000
00FFFFC000
01F807F000
03E001F800
07C0007C00
0F80003E00
1F00003E00
3E00001F00
3E00000F80
7C00000F80
7C00000F80
7C000007C0
F8000007C0
F8000007C0
F8000007C0
F8000007E0
F8000007E0
F8000003E0
F8000003E0
F8000007E0
F8000007E0
F8000007C0
F8000007C0
F8000007C0
7C000007C0
7C00000F80
7C00000F80
3E00000F80
3E00001F00
1F00001E00
0F80003E00
0FC0007C00
07E000F800
01F803F000
00FFFFC000
003FFF8000
000FFC0000
ENDCHAR
STARTCHAR 00AC
ENCODING 172
SWIDTH 700 0
DWIDTH 35 0
BBX 33 47 1 -1
BITMAP
000000C000
0003F9C000
0007FF8000
0006FF0000
000C0C0000
0008000000
0000000000
0000000000
0000000000
0000000000
FFE001FF80
FFE001FF80
7FC000FE00
1F00003C00
1F00001C00
1F00001C00
1E00001C00
1E00001E00
1E00001E00
1E00001E00
1E00001E00
1E00001E00
3E00001E00
3E00001E00
3E00001E00
3E00001E00
3E00001E00
3E00001E00
3E00001E00
3E00001E00
3E00001E00
3E00001E00
3E00001E00
3E00001E00
3E00001E00
1E00001E00
1E00001C00
1E00001C00
1F00003C00
0F00003800
0F80007800
07C000F000
07E001F000
03F807E000
01FFFFC000
007FFF0000
001FF80000
ENDCHAR
STARTCHAR 00AD
ENCODING 173
SWIDTH 700 0
DWIDTH 35 0
BBX 36 53 1 -1
BITMAP
0000008000
000003C000
000007C000
000007C000
00000F0000
00001C0000
0000380000
00006003E0
0000C00630
0000000610
0000000010
0000000010
0000000030
0000000060
00000003C0
0000000200
FFE001FF80
FFE001FF80
7FC000FE00
1F00003C00
1F00001C00
1F00001C00
1E00001C00
1E00001E00
1E00001E00
1E00001E00
1E00001E00
1E00001E00
3E00001E00
3E00001E00
3E00001E00
3E00001E00
3E00001E00
3E00001E00
3E00001E00
3E00001E00
3E00001E00
3E00001E00
3E00001E00
3E00001E00
3E00001E00
1E00001E00
1E00001C00
1E00001C00
1F00003C00
0F00003800
0F80007800
07C000F000
07E001F000
03F807E000
01FFFFC000
007FFF0000
001FF80000
ENDCHAR
STARTCHAR 00AE
ENCODING 174
SWIDTH 760 0
DWIDTH 38 0
BBX 35 54 2 -9
BITMAP
0000001E00
0000003100
0000002180
0000000180
0000000180
0000000100
0000000700
0000001E00
0007F82000
003FFF2000
00FFFFC000
01F807F000
03E001F800
07C0007C00
0F80003E00
1F00003E00
3E00001F00
3E00000F80
7C00000F80
7C00000F80
7C000007C0
F8000007C0
F8000007C0
F8000007C0
F8000007E0
F8000007E0
F8000003E0
F8000003E0
F8000007E0
F8000007E0
F8000007C0
F8000007C0
F8000007C0
7C000007C0
7C00000F80
7C00000F80
3E00000F80
3E00001F00
1F00001E00
0F80003E00
0FC0007C00
07E000F800
01F803F000
00FFFFC000
003FFF8000
000FFC0000
0000000000
0000000000
0000E00000
0001F00000
0001F00000
0001F00000
0001F00000
0000400000
ENDCHAR
STARTCHAR 00AF
ENCODING 175
SWIDTH 700 0
DWIDTH 35 0
BBX 36 52 1 -1
BITMAP
0038000000
003C000000
003E000000
001F000000
0007800000
0003C00000
0000E003E0
0000300630
0000180610
0000000010
0000000010
0000000030
0000000060
00000003C0
0000000200
FFE001FF80
FFE001FF80
7FC000FE00
1F00003C00
1F00001C00
1F00001C00
1E00001C00
1E00001E00
1E00001E00
1E00001E00
1E00001E00
1E00001E00
3E00001E00
3E00001E00
3E00001E00
3E00001E00
3E00001E00
3E00001E00
3E00001E00
3E00001E00
3E00001E00
3E00001E00
3E00001E00
3E00001E00
3E00001E00
1E00001E00
1E00001C00
1E00001C00
1F00003C00
0F00003800
0F80007800
07C000F000
07E001F000
03F807E000
01FFFFC000
007FFF0000
001FF80000
ENDCHAR
STARTCHAR 00B0
ENCODING 176
SWIDTH 760 0
DWIDTH 38 0
BBX 35 57 2 -1
BITMAP
000000F000
0000018800
0000010C00
0000010400
0000000400
0000000C00
0000001800
0000003800
0001E06000
0001F04000
0003F04000
0007F80000
00071C0000
000E0C0000
001C060000
0018030000
0000000000
0000000000
0000000000
0007F80000
003FFF0000
00FFFFC000
01F807F000
03E001F800
07C0007C00
0F80003E00
1F00003E00
3E00001F00
3E00000F80
7C00000F80
7C00000F80
7C000007C0
F8000007C0
F8000007C0
F8000007C0
F8000007E0
F8000007E0
F8000003E0
F8000003E0
F8000007E0
F8000007E0
F8000007C0
F8000007C0
F8000007C0
7C000007C0
7C00000F80
7C00000F80
3E00000F80
3E00001F00
1F00001E00
0F80003E00
0FC0007C00
07E000F800
01F803F000
00FFFFC000
003FFF8000
000FFC0000
ENDCHAR
STARTCHAR 00B1
ENCODING 177
SWIDTH 700 0
DWIDTH 35 0
BBX 36 53 1 -1
BITMAP
0000780000
00008C0000
0001860000
0000060000
0000060000
0000060000
00000C0000
00003803E0
0000200630
0000200610
0000400010
0000000010
0000000030
0000000060
00000003C0
0000000200
FFE001FF80
FFE001FF80
7FC000FE00
1F00003C00
1F00001C00
1F00001C00
1E00001C00
1E00001E00
1E00001E00
1E00001E00
1E00001E00
1E00001E00
3E00001E00
3E00001E00
3E00001E00
3E00001E00
3E00001E00
3E00001E00
3E00001E00
3E00001E00
3E00001E00
3E00001E00
3E00001E00
3E00001E00
3E00001E00
1E00001E00
1E00001C00
1E00001C00
1F00003C00
0F00003800
0F80007800
07C000F000
07E001F000
03F807E000
01FFFFC000
007FFF0000
001FF80000
ENDCHAR
STARTCHAR 00B2
ENCODING 178
SWIDTH 640 0
DWIDTH 32 0
BBX 34 48 -1 0
BITMAP
0030000000
0078000000
007C000000
003E000000
000F000000
0003800000
0001C00000
0000600000
0000300000
0000000000
0000000000
0000000000
FFC0007FC0
FFC0007F80
3F80003F00
1F00001F00
0F80001E00
0F80001C00
07C0003C00
07C0003800
03E0007000
01F0007000
01F000E000
00F801C000
007C01C000
007C038000
003E070000
001F0F0000
000F8E0000
000F9C0000
0007FC0000
0003F80000
0003F00000
0001F00000
0001F00000
0001F00000
0001F00000
0001F00000
0001F00000
0001F00000
0001F00000
0001F00000
0001F00000
0001F00000
0001F00000
0003F80000
000FFC0000
000FFC0000
ENDCHAR
STARTCHAR 00B3
ENCODING 179
SWIDTH 640 0
DWIDTH 32 0
BBX 34 47 -1 0
BITMAP
0000004000
0001E0C000
0003FFC000
0007FF8000
00063F0000
000C000000
0000000000
0000000000
0000000000
0000000000
0000000000
FFC0007FC0
FFC0007F80
3F80003F00
1F00001F00
0F80001E00
0F80001C00
07C0003C00
07C0003800
03E0007000
01F0007000
01F000E000
00F801C000
007C01C000
007C038000
003E070000
001F0F0000
000F8E0000
000F9C0000
0007FC0000
0003F80000
0003F00000
0001F00000
0001F00000
0001F00000
0001F00000
0001F00000
0001F00000
0001F00000
0001F00000
0001F00000
0001F00000
0001F00000
0001F00000
0003F80000
000FFC0000
000FFC0000
ENDCHAR
STARTCHAR 00B4
ENCODING 180
SWIDTH 260 0
DWIDTH 13 0
BBX 12 48 2 0
BITMAP
00F0
01F0
03E0
07C0
0F00
1E00
3800
7000
0000
0000
0000
0000
FFC0
FFC0
7F00
3E00
1E00
1E00
1E00
1E00
1E00
1E00
1E00
1E00
1E00
1E00
1E00
1E00
1E00
1E00
1E00
1E00
1E00
1E00
1E00
1E00
1E00
1E00
1E00
1E00
1E00
1E00
1E00
1E00
3E00
7F80
FFC0
FFC0
ENDCHAR
STARTCHAR 00B5
ENCODING 181
SWIDTH 260 0
DWIDTH 13 0
BBX 12 48 0 0
BITMAP
F000
F800
FC00
3E00
1F00
0700
0180
00C0
0020
0000
0000
0000
3FF0
3FF0
1FC0
0F80
0780
0780
0780
0780
0780
0780
0780
0780
0780
0780
0780
0780
0780
0780
0780
0780
0780
0780
0780
0780
0780
0780
0780
0780
0780
0780
0780
0780
0F80
1FE0
3FF0
3FF0
ENDCHAR
STARTCHAR 00B6
ENCODING 182
SWIDTH 760 0
DWIDTH 38 0
BBX 35 57 2 -9
BITMAP
0001E00000
0001F00000
0003F00000
0007F80000
00071C0000
000E0C0000
001C060000
0018030000
0000000000
0000000000
0000000000
0007F80000
003FFF0000
00FFFFC000
01F807F000
03E001F800
07C0007C00
0F80003E00
1F00003E00
3E00001F00
3E00000F80
7C00000F80
7C00000F80
7C000007C0
F8000007C0
F8000007C0
F8000007C0
F8000007E0
F8000007E0
F8000003E0
F8000003E0
F8000007E0
F8000007E0
F8000007C0
F8000007C0
F8000007C0
7C000007C0
7C00000F80
7C00000F80
3E00000F80
3E00001F00
1F00001E00
0F80003E00
0FC0007C00
07E000F800
01F803F000
00FFFFC000
003FFF8000
000FFC0000
0000000000
0000000000
0000E00000
0001F00000
0001F00000
0001F00000
0001F00000
0000400000
ENDCHAR
STARTCHAR 00B8
ENCODING 184
SWIDTH 260 0
DWIDTH 13 0
BBX 13 46 0 0
BITMAP
0008
3E18
7FF8
FFF0
C3E0
8000
0000
0000
0000
0000
3FF0
3FF0
1FC0
0F80
0780
0780
0780
0780
0780
0780
0780
0780
0780
0780
0780
0780
0780
0780
0780
0780
0780
0780
0780
0780
0780
0780
0780
0780
0780
0780
0780
0780
0F80
1FE0
3FF0
3FF0
ENDCHAR
STARTCHAR 00B9
ENCODING 185
SWIDTH 760 0
DWIDTH 38 0
BBX 35 49 2 -1
BITMAP
0000070000
00000F0000
00001F0000
00003C0000
0000780000
0000E00000
0001C00000
0003000000
0004000000
0000000000
0000000000
0007F80000
003FFF0000
00FFFFC000
01F807F000
03E001F800
07C0007C00
0F80003E00
1F00003E00
3E00001F00
3E00000F80
7C00000F80
7C00000F80
7C000007C0
F8000007C0
F8000007C0
F8000007C0
F8000007E0
F8000007E0
F8000003E0
F8000003E0
F8000007E0
F8000007E0
F8000007C0
F8000007C0
F8000007C0
7C000007C0
7C00000F80
7C00000F80
3E00000F80
3E00001F00
1F00001E00
0F80003E00
0FC0007C00
07E000F800
01F803F000
00FFFFC000
003FFF8000
000FFC0000
ENDCHAR
STARTCHAR 00BA
ENCODING 186
SWIDTH 700 0
DWIDTH 35 0
BBX 36 53 1 -1
BITMAP
0000780000
00008C0000
0001860000
0000060000
0000060000
0000060000
00000C0000
00003803E0
0000200630
0000200610
0000400010
0000000010
0000000030
0000000060
00000003C0
0000000200
FFE001FF80
FFE001FF80
7FC000FE00
1F00003C00
1F00001C00
1F00001C00
1E00001C00
1E00001E00
1E00001E00
1E00001E00
1E00001E00
1E00001E00
3E00001E00
3E00001E00
3E00001E00
3E00001E00
3E00001E00
3E00001E00
3E00001E00
3E00001E00
3E00001E00
3E00001E00
3E00001E00
3E00001E00
3E00001E00
1E00001E00
1E00001C00
1E00001C00
1F00003C00
0F00003800
0F80007800
07C000F000
07E001F000
03F807E000
01FFFFC000
007FFF0000
001FF80000
ENDCHAR
STARTCHAR 00BB
ENCODING 187
SWIDTH 700 0
DWIDTH 35 0
BBX 36 56 1 -1
BITMAP
0000008000
0003E18000
0007FF8000
000FFF0000
00083E0000
0018000000
0000000000
0000000000
0000000000
0000000000
00000003E0
0000000630
0000000610
0000000010
0000000010
0000000030
0000000060
00000003C0
0000000200
FFE001FF80
FFE001FF80
7FC000FE00
1F00003C00
1F00001C00
1F00001C00
1E00001C00
1E00001E00
1E00001E00
1E00001E00
1E00001E00
1E00001E00
3E00001E00
3E00001E00
3E00001E00
3E00001E00
3E00001E00
3E00001E00
3E00001E00
3E00001E00
3E00001E00
3E00001E00
3E00001E00
3E00001E00
3E00001E00
1E00001E00
1E00001C00
1E00001C00
1F00003C00
0F00003800
0F80007800
07C000F000
07E001F000
03F807E000
01FFFFC000
007FFF0000
001FF80000
ENDCHAR
STARTCHAR 00BC
ENCODING 188
SWIDTH 760 0
DWIDTH 38 0
BBX 35 49 2 -1
BITMAP
001C000000
003E000000
001F000000
000F800000
0003C00000
0001E00000
0000700000
0000180000
0000000000
0000000000
0000000000
0007F80000
003FFF0000
00FFFFC000
01F807F000
03E001F800
07C0007C00
0F80003E00
1F00003E00
3E00001F00
3E00000F80
7C00000F80
7C00000F80
7C000007C0
F8000007C0
F8000007C0
F8000007C0
F8000007E0
F8000007E0
F8000003E0
F8000003E0
F8000007E0
F8000007E0
F8000007C0
F8000007C0
F8000007C0
7C000007C0
7C00000F80
7C00000F80
3E00000F80
3E00001F00
1F00001E00
0F80003E00
0FC0007C00
07E000F800
01F803F000
00FFFFC000
003FFF8000
000FFC0000
ENDCHAR
STARTCHAR 00BD
ENCODING 189
SWIDTH 760 0
DWIDTH 38 0
BBX 35 51 2 0
BITMAP
0001D80000
00030C0000
00030C0000
00000C0000
00000C0000
00000C0000
0000380000
0000600000
0000400000
0000400000
0000000000
0000000000
0000000000
0007F80000
003FFF0000
00FFFFC000
01F807F000
03E001F800
07C0007C00
0F80003E00
1F00003E00
3E00001F00
3E00000F80
7C00000F80
7C00000F80
7C000007C0
F8000007C0
F8000007C0
F8000007C0
F8000007E0
F8000007E0
F8000003E0
F8000003E0
F8000007E0
F8000007E0
F8000007C0
F8000007C0
F8000007C0
7C000007C0
7C00000F80
7C00000F80
3E00000F80
3E00001F00
1F00001E00
0F80003E00
0FC0007C00
07E000F800
01F803F000
00FFFFC000
003FFF8000
000FFC0000
ENDCHAR
STARTCHAR 00BE
ENCODING 190
SWIDTH 760 0
DWIDTH 38 0
BBX 35 48 2 -1
BITMAP
0000010000
0007C30000
000FFE0000
001FFE0000
0010FC0000
0030000000
0000000000
0000000000
0000000000
0000000000
0007F80000
003FFF0000
00FFFFC000
01F807F000
03E001F800
07C0007C00
0F80003E00
1F00003E00
3E00001F00
3E00000F80
7C00000F80
7C00000F80
7C000007C0
F8000007C0
F8000007C0
F8000007C0
F8000007E0
F8000007E0
F8000003E0
F8000003E0
F8000007E0
F8000007E0
F8000007C0
F8000007C0
F8000007C0
7C000007C0
7C00000F80
7C00000F80
3E00000F80
3E00001F00
1F00001E00
0F80003E00
0FC0007C00
07E000F800
01F803F000
00FFFFC000
003FFF8000
000FFC0000
ENDCHAR
STARTCHAR 00BF
ENCODING 191
SWIDTH 700 0
DWIDTH 35 0
BBX 36 53 1 -8
BITMAP
00000003E0
0000000630
0000000610
0000000010
0000000010
0000000030
0000000060
00000003C0
0000000200
FFE001FF80
FFE001FF80
7FC000FE00
1F00003C00
1F00001C00
1F00001C00
1E00001C00
1E00001E00
1E00001E00
1E00001E00
1E00001E00
1E00001E00
3E00001E00
3E00001E00
3E00001E00
3E00001E00
3E00001E00
3E00001E00
3E00001E00
3E00001E00
3E00001E00
3E00001E00
3E00001E00
3E00001E00
3E00001E00
1E00001E00
1E00001C00
1E00001C00
1F00003C00
0F00003800
0F80007800
07C000F000
07E001F000
03F807E000
01FFFFC000
007FFF0000
001FF80000
0000000000
0000000000
0001C00000
0003E00000
0003E00000
0003E00000
0003C00000
ENDCHAR
STARTCHAR 00C0
ENCODING 192
SWIDTH 640 0
DWIDTH 32 0
BBX 33 54 0 0
BITMAP
7000000000
7800000000
7C00000000
3E00000000
0F00000000
0780000000
01C1C00000
00E3E00000
0037F00000
0007700000
000E380000
001C1C0000
00180C0000
0030060000
0000000000
0000000000
0000000000
0000800000
0001C00000
0003C00000
0007E00000
0007F00000
000FF00000
000FF80000
001EF80000
001C7C0000
001C7C0000
003C3E0000
00383E0000
00781F0000
00701F0000
00F00F0000
00E00F8000
00E00F8000
01E007C000
01C007C000
03C003C000
038003E000
038003E000
07FFFFE000
07FFFFF000
070001F000
0F0000F000
0E0000F800
1E00007800
1E00007800
1C00007C00
3C00003C00
3C00003C00
3C00003E00
7C00003E00
7E00007F00
FF0000FF80
FF0000FF80
ENDCHAR
STARTCHAR 00C1
ENCODING 193
SWIDTH 640 0
DWIDTH 32 0
BBX 33 48 0 0
BITMAP
00000E0000
00001E0000
00003E0000
00007C0000
0000F00000
0001C00000
0003800000
0006000000
0000000000
0000000000
0000000000
0000800000
0001C00000
0003C00000
0007E00000
0007F00000
000FF00000
000FF80000
001EF80000
001C7C0000
001C7C0000
003C3E0000
00383E0000
00781F0000
00701F0000
00F00F0000
00E00F8000
00E00F8000
01E007C000
01C007C000
03C003C000
038003E000
038003E000
07FFFFE000
07FFFFF000
070001F000
0F0000F000
0E0000F800
1E00007800
1E00007800
1C00007C00
3C00003C00
3C00003C00
3C00003E00
7C00003E00
7E00007F00
FF0000FF80
FF0000FF80
ENDCHAR
STARTCHAR 00C2
ENCODING 194
SWIDTH 640 0
DWIDTH 32 0
BBX 33 48 0 0
BITMAP
0001C00000
0003E00000
0007F00000
0007700000
000E380000
001C1C0000
00180C0000
0030060000
0000000000
0000000000
0000000000
0000800000
0001C00000
0003C00000
0007E00000
0007F00000
000FF00000
000FF80000
001EF80000
001C7C0000
001C7C0000
003C3E0000
00383E0000
00781F0000
00701F0000
00F00F0000
00E00F8000
00E00F8000
01E007C000
01C007C000
03C003C000
038003E000
038003E000
07FFFFE000
07FFFFF000
070001F000
0F0000F000
0E0000F800
1E00007800
1E00007800
1C00007C00
3C00003C00
3C00003C00
3C00003E00
7C00003E00
7E00007F00
FF0000FF80
FF0000FF80
ENDCHAR
STARTCHAR 00C3
ENCODING 195
SWIDTH 640 0
DWIDTH 32 0
BBX 33 54 0 0
BITMAP
0000000380
0000000780
0000000F80
0000001F00
0000003C00
0000007800
0001C0E000
0003E18000
0007F30000
0007700000
000E380000
001C1C0000
00180C0000
0030060000
0000000000
0000000000
0000000000
0000800000
0001C00000
0003C00000
0007E00000
0007F00000
000FF00000
000FF80000
001EF80000
001C7C0000
001C7C0000
003C3E0000
00383E0000
00781F0000
00701F0000
00F00F0000
00E00F8000
00E00F8000
01E007C000
01C007C000
03C003C000
038003E000
038003E000
07FFFFE000
07FFFFF000
070001F000
0F0000F000
0E0000F800
1E00007800
1E00007800
1C00007C00
3C00003C00
3C00003C00
3C00003E00
7C00003E00
7E00007F00
FF0000FF80
FF0000FF80
ENDCHAR
STARTCHAR 00C4
ENCODING 196
SWIDTH 640 0
DWIDTH 32 0
BBX 33 57 0 0
BITMAP
0000008000
0000076000
0000043000
0000041000
0000001000
0000001000
0000003000
0000006000
000001C000
0001C10000
0003E10000
0007F10000
0007700000
000E380000
001C1C0000
00180C0000
0030060000
0000000000
0000000000
0000000000
0000800000
0001C00000
0003C00000
0007E00000
0007F00000
000FF00000
000FF80000
001EF80000
001C7C0000
001C7C0000
003C3E0000
00383E0000
00781F0000
00701F0000
00F00F0000
00E00F8000
00E00F8000
01E007C000
01C007C000
03C003C000
038003E000
038003E000
07FFFFE000
07FFFFF000
070001F000
0F0000F000
0E0000F800
1E00007800
1E00007800
1C00007C00
3C00003C00
3C00003C00
3C00003E00
7C00003E00
7E00007F00
FF0000FF80
FF0000FF80
ENDCHAR
STARTCHAR 00C5
ENCODING 197
SWIDTH 640 0
DWIDTH 32 0
BBX 33 55 0 0
BITMAP
0000020000
0007020000
001FFE0000
003FFC0000
0033F80000
0020000000
0060000000
0001C00000
0003E00000
0007F00000
0007700000
000E380000
001C1C0000
00180C0000
0030060000
0000000000
0000000000
0000000000
0000800000
0001C00000
0003C00000
0007E00000
0007F00000
000FF00000
000FF80000
001EF80000
001C7C0000
001C7C0000
003C3E0000
00383E0000
00781F0000
00701F0000
00F00F0000
00E00F8000
00E00F8000
01E007C000
01C007C000
03C003C000
038003E000
038003E000
07FFFFE000
07FFFFF000
070001F000
0F0000F000
0E0000F800
1E00007800
1E00007800
1C00007C00
3C00003C00
3C00003C00
3C00003E00
7C00003E00
7E00007F00
FF0000FF80
FF0000FF80
ENDCHAR
STARTCHAR 00C6
ENCODING 198
SWIDTH 640 0
DWIDTH 32 0
BBX 33 56 0 -8
BITMAP
0001C00000
0003E00000
0007F00000
0007700000
000E380000
001C1C0000
00180C0000
0030060000
0000000000
0000000000
0000000000
0000800000
0001C00000
0003C00000
0007E00000
0007F00000
000FF00000
000FF80000
001EF80000
001C7C0000
001C7C0000
003C3E0000
00383E0000
00781F0000
00701F0000
00F00F0000
00E00F8000
00E00F8000
01E007C000
01C007C000
03C003C000
038003E000
038003E000
07FFFFE000
07FFFFF000
070001F000
0F0000F000
0E0000F800
1E00007800
1E00007800
1C00007C00
3C00003C00
3C00003C00
3C00003E00
7C00003E00
7E00007F00
FF0000FF80
FF0000FF80
0000000000
0000000000
0003000000
0007800000
000F800000
000FC00000
0007800000
0003000000
ENDCHAR
STARTCHAR 00C7
ENCODING 199
SWIDTH 720 0
DWIDTH 36 0
BBX 35 36 0 0
BITMAP
3FFFF80000
3FFFFF0000
1FF8FFC000
0FC007F000
078001F800
0780007C00
0780003E00
0780001F00
0780001F00
0780000F80
0780000F80
07800007C0
07800007C0
07800007C0
07800007C0
FFFFC007E0
FFFFE007E0
07800003E0
07800007E0
07800007E0
07800007E0
07800007C0
07800007C0
07800007C0
07800007C0
0780000F80
0780000F80
0780001F00
0780003F00
0780007E00
078000FC00
07C001F800
0FC007F000
1FF9FFC000
3FFFFF0000
3FFFF00000
ENDCHAR
STARTCHAR 00C8
ENCODING 200
SWIDTH 600 0
DWIDTH 30 0
BBX 28 51 2 0
BITMAP
00070000
0008C000
00184000
00186000
00006000
00004000
0000C000
00038000
00060000
00040000
00040000
00000000
00000000
00000000
00000000
FFFFFFC0
FFFFFFC0
7FFFFFC0
3F0003C0
3E0000C0
3E000040
3E000000
3E000000
3E000000
3E000000
3E000000
3E000000
3E000000
3E000400
3E000E00
3FFFFE00
3FFFFE00
3FFFFE00
3E000E00
3E000000
3E000000
3E000000
3E000000
3E000000
3E000000
3E000000
3E000000
3E000000
3E000000
3E000030
3E000070
3E0000F0
3F0003F0
7FFFFFF0
FFFFFFF0
FFFFFFE0
ENDCHAR
STARTCHAR 00C9
ENCODING 201
SWIDTH 600 0
DWIDTH 30 0
BBX 28 48 2 0
BITMAP
00003800
00007800
0000F800
0001E000
0003C000
00070000
000E0000
00180000
00200000
00000000
00000000
00000000
FFFFFFC0
FFFFFFC0
7FFFFFC0
3F0003C0
3E0000C0
3E000040
3E000000
3E000000
3E000000
3E000000
3E000000
3E000000
3E000000
3E000400
3E000E00
3FFFFE00
3FFFFE00
3FFFFE00
3E000E00
3E000000
3E000000
3E000000
3E000000
3E000000
3E000000
3E000000
3E000000
3E000000
3E000000
3E000030
3E000070
3E0000F0
3F0003F0
7FFFFFF0
FFFFFFF0
FFFFFFE0
ENDCHAR
STARTCHAR 00CA
ENCODING 202
SWIDTH 600 0
DWIDTH 30 0
BBX 28 48 2 0
BITMAP
000F0000
000F8000
001F8000
003DC000
0038E000
00706000
00E03000
00C01800
00000000
00000000
00000000
00000000
FFFFFFC0
FFFFFFC0
7FFFFFC0
3F0003C0
3E0000C0
3E000040
3E000000
3E000000
3E000000
3E000000
3E000000
3E000000
3E000000
3E000400
3E000E00
3FFFFE00
3FFFFE00
3FFFFE00
3E000E00
3E000000
3E000000
3E000000
3E000000
3E000000
3E000000
3E000000
3E000000
3E000000
3E000000
3E000030
3E000070
3E0000F0
3F0003F0
7FFFFFF0
FFFFFFF0
FFFFFFE0
ENDCHAR
STARTCHAR 00CB
ENCODING 203
SWIDTH 600 0
DWIDTH 30 0
BBX 28 44 2 -8
BITMAP
FFFFFFC0
FFFFFFC0
7FFFFFC0
3F0003C0
3E0000C0
3E000040
3E000000
3E000000
3E000000
3E000000
3E000000
3E000000
3E000000
3E000400
3E000E00
3FFFFE00
3FFFFE00
3FFFFE00
3E000E00
3E000000
3E000000
3E000000
3E000000
3E000000
3E000000
3E000000
3E000000
3E000000
3E000000
3E000030
3E000070
3E0000F0
3F0003F0
7FFFFFF0
FFFFFFF0
FFFFFFE0
00000000
00000000
000C0000
001E0000
003E0000
003F0000
001E0000
000C0000
ENDCHAR
STARTCHAR 00CC
ENCODING 204
SWIDTH 260 0
DWIDTH 13 0
BBX 10 51 2 0
BITMAP
1F00
3180
3080
0080
0080
0180
0380
0700
0800
0800
0800
0000
0000
0000
0000
FFC0
FFC0
7F00
3E00
1E00
1E00
1E00
1E00
1E00
1E00
1E00
1E00
1E00
1E00
1E00
1E00
1E00
1E00
1E00
1E00
1E00
1E00
1E00
1E00
1E00
1E00
1E00
1E00
1E00
1E00
1E00
1E00
3E00
7F80
FFC0
FFC0
ENDCHAR
STARTCHAR 00CD
ENCODING 205
SWIDTH 600 0
DWIDTH 30 0
BBX 28 55 2 0
BITMAP
00000800
001C0800
007FF800
00FFF000
00CFE000
00800000
01800000
000F0000
000F8000
001F8000
003DC000
0038E000
00706000
00E03000
00C01800
00000000
00000000
00000000
00000000
FFFFFFC0
FFFFFFC0
7FFFFFC0
3F0003C0
3E0000C0
3E000040
3E000000
3E000000
3E000000
3E000000
3E000000
3E000000
3E000000
3E000400
3E000E00
3FFFFE00
3FFFFE00
3FFFFE00
3E000E00
3E000000
3E000000
3E000000
3E000000
3E000000
3E000000
3E000000
3E000000
3E000000
3E000000
3E000030
3E000070
3E0000F0
3F0003F0
7FFFFFF0
FFFFFFF0
FFFFFFE0
ENDCHAR
STARTCHAR 00CE
ENCODING 206
SWIDTH 260 0
DWIDTH 13 0
BBX 10 45 2 -9
BITMAP
FFC0
FFC0
7F00
3E00
1E00
1E00
1E00
1E00
1E00
1E00
1E00
1E00
1E00
1E00
1E00
1E00
1E00
1E00
1E00
1E00
1E00
1E00
1E00
1E00
1E00
1E00
1E00
1E00
1E00
1E00
1E00
1E00
3E00
7F80
FFC0
FFC0
0000
0000
0000
0C00
1E00
3F00
3F00
1E00
0400
ENDCHAR
STARTCHAR 00CF
ENCODING 207
SWIDTH 640 0
DWIDTH 32 0
BBX 34 47 -1 0
BITMAP
0000004000
0001E0C000
0003FFC000
0007FF8000
00063F0000
000C000000
0000000000
0000000000
0000000000
0000000000
0000000000
FFC0007FC0
FFC0007F80
3F80003F00
1F00001F00
0F80001E00
0F80001C00
07C0003C00
07C0003800
03E0007000
01F0007000
01F000E000
00F801C000
007C01C000
007C038000
003E070000
001F0F0000
000F8E0000
000F9C0000
0007FC0000
0003F80000
0003F00000
0001F00000
0001F00000
0001F00000
0001F00000
0001F00000
0001F00000
0001F00000
0001F00000
0001F00000
0001F00000
0001F00000
0001F00000
0003F80000
000FFC0000
000FFC0000
ENDCHAR
STARTCHAR 00D0
ENCODING 208
SWIDTH 700 0
DWIDTH 35 0
BBX 36 46 1 -1
BITMAP
00000003E0
0000000630
0000000610
0000000010
0000000010
0000000030
0000000060
00000003C0
0000000200
FFE001FF80
FFE001FF80
7FC000FE00
1F00003C00
1F00001C00
1F00001C00
1E00001C00
1E00001E00
1E00001E00
1E00001E00
1E00001E00
1E00001E00
3E00001E00
3E00001E00
3E00001E00
3E00001E00
3E00001E00
3E00001E00
3E00001E00
3E00001E00
3E00001E00
3E00001E00
3E00001E00
3E00001E00
3E00001E00
1E00001E00
1E00001C00
1E00001C00
1F00003C00
0F00003800
0F80007800
07C000F000
07E001F000
03F807E000
01FFFFC000
007FFF0000
001FF80000
ENDCHAR
STARTCHAR 00D1
ENCODING 209
SWIDTH 700 0
DWIDTH 35 0
BBX 33 52 1 -1
BITMAP
0000700000
00018C0000
0001840000
0001040000
0000040000
0000040000
00000C0000
0000380000
0000600000
0000400000
0000400000
0000000000
0000000000
0000000000
0000000000
FFE001FF80
FFE001FF80
7FC000FE00
1F00003C00
1F00001C00
1F00001C00
1E00001C00
1E00001E00
1E00001E00
1E00001E00
1E00001E00
1E00001E00
3E00001E00
3E00001E00
3E00001E00
3E00001E00
3E00001E00
3E00001E00
3E00001E00
3E00001E00
3E00001E00
3E00001E00
3E00001E00
3E00001E00
3E00001E00
1E00001E00
1E00001C00
1E00001C00
1F00003C00
0F00003800
0F80007800
07C000F000
07E001F000
03F807E000
01FFFFC000
007FFF0000
001FF80000
ENDCHAR
STARTCHAR 00D2
ENCODING 210
SWIDTH 760 0
DWIDTH 38 0
BBX 35 55 2 -1
BITMAP
3000000000
7800000000
7C00000000
3E00000000
0F00000000
0380000000
01C1E00000
0061F00000
0033F00000
0007F80000
00071C0000
000E0C0000
001C060000
0018030000
0000000000
0000000000
0000000000
0007F80000
003FFF0000
00FFFFC000
01F807F000
03E001F800
07C0007C00
0F80003E00
1F00003E00
3E00001F00
3E00000F80
7C00000F80
7C00000F80
7C000007C0
F8000007C0
F8000007C0
F8000007C0
F8000007E0
F8000007E0
F8000003E0
F8000003E0
F8000007E0
F8000007E0
F8000007C0
F8000007C0
F8000007C0
7C000007C0
7C00000F80
7C00000F80
3E00000F80
3E00001F00
1F00001E00
0F80003E00
0FC0007C00
07E000F800
01F803F000
00FFFFC000
003FFF8000
000FFC0000
ENDCHAR
STARTCHAR 00D3
ENCODING 211
SWIDTH 760 0
DWIDTH 38 0
BBX 35 55 2 -1
BITMAP
0000000380
0000000780
0000000F80
0000001F00
0000003E00
0000007800
0001E0E000
0001F1C000
0003F30000
0007F80000
00071C0000
000E0C0000
001C060000
0018030000
0000000000
0000000000
0000000000
0007F80000
003FFF0000
00FFFFC000
01F807F000
03E001F800
07C0007C00
0F80003E00
1F00003E00
3E00001F00
3E00000F80
7C00000F80
7C00000F80
7C000007C0
F8000007C0
F8000007C0
F8000007C0
F8000007E0
F8000007E0
F8000003E0
F8000003E0
F8000007E0
F8000007E0
F8000007C0
F8000007C0
F8000007C0
7C000007C0
7C00000F80
7C00000F80
3E00000F80
3E00001F00
1F00001E00
0F80003E00
0FC0007C00
07E000F800
01F803F000
00FFFFC000
003FFF8000
000FFC0000
ENDCHAR
STARTCHAR 00D4
ENCODING 212
SWIDTH 760 0
DWIDTH 38 0
BBX 35 49 2 -1
BITMAP
0001E00000
0001F00000
0003F00000
0007F80000
00071C0000
000E0C0000
001C060000
0018030000
0000000000
0000000000
0000000000
0007F80000
003FFF0000
00FFFFC000
01F807F000
03E001F800
07C0007C00
0F80003E00
1F00003E00
3E00001F00
3E00000F80
7C00000F80
7C00000F80
7C000007C0
F8000007C0
F8000007C0
F8000007C0
F8000007E0
F8000007E0
F8000003E0
F8000003E0
F8000007E0
F8000007E0
F8000007C0
F8000007C0
F8000007C0
7C000007C0
7C00000F80
7C00000F80
3E00000F80
3E00001F00
1F00001E00
0F80003E00
0FC0007C00
07E000F800
01F803F000
00FFFFC000
003FFF8000
000FFC0000
ENDCHAR
STARTCHAR 00D5
ENCODING 213
SWIDTH 760 0
DWIDTH 38 0
BBX 35 51 2 0
BITMAP
0001D80000
00030C0000
00030C0000
00000C0000
00000C0000
00000C0000
0000380000
0000600000
0000400000
0000400000
0000000000
0000000000
0000000000
0007F80000
003FFF0000
00FFFFC000
01F807F000
03E001F800
07C0007C00
0F80003E00
1F00003E00
3E00001F00
3E00000F80
7C00000F80
7C00000F80
7C000007C0
F8000007C0
F8000007C0
F8000007C0
F8000007E0
F8000007E0
F8000003E0
F8000003E0
F8000007E0
F8000007E0
F8000007C0
F8000007C0
F8000007C0
7C000007C0
7C00000F80
7C00000F80
3E00000F80
3E00001F00
1F00001E00
0F80003E00
0FC0007C00
07E000F800
01F803F000
00FFFFC000
003FFF8000
000FFC0000
ENDCHAR
STARTCHAR 00D6
ENCODING 214
SWIDTH 760 0
DWIDTH 38 0
BBX 35 46 2 -1
BITMAP
0000001E00
0000003100
0000002180
0000000180
0000000180
0000000100
0000000700
0000001E00
0007F82000
003FFF2000
00FFFFC000
01F807F000
03E001F800
07C0007C00
0F80003E00
1F00003E00
3E00001F00
3E00000F80
7C00000F80
7C00000F80
7C000007C0
F8000007C0
F8000007C0
F8000007C0
F8000007E0
F8000007E0
F8000003E0
F8000003E0
F8000007E0
F8000007E0
F8000007C0
F8000007C0
F8000007C0
7C000007C0
7C00000F80
7C00000F80
3E00000F80
3E00001F00
1F00001E00
0F80003E00
0FC0007C00
07E000F800
01F803F000
00FFFFC000
003FFF8000
000FFC0000
ENDCHAR
STARTCHAR 00D7
ENCODING 215
SWIDTH 600 0
DWIDTH 30 0
BBX 28 48 2 0
BITMAP
00E00000
01F00000
00F80000
007C0000
001E0000
000F0000
00038000
0000C000
00000000
00000000
00000000
00000000
FFFFFFC0
FFFFFFC0
7FFFFFC0
3F0003C0
3E0000C0
3E000040
3E000000
3E000000
3E000000
3E000000
3E000000
3E000000
3E000000
3E000400
3E000E00
3FFFFE00
3FFFFE00
3FFFFE00
3E000E00
3E000000
3E000000
3E000000
3E000000
3E000000
3E000000
3E000000
3E000000
3E000000
3E000000
3E000030
3E000070
3E0000F0
3F0003F0
7FFFFFF0
FFFFFFF0
FFFFFFE0
ENDCHAR
STARTCHAR 00D8
ENCODING 216
SWIDTH 700 0
DWIDTH 35 0
BBX 36 52 1 -1
BITMAP
0038000000
003C000000
003E000000
001F000000
0007800000
0003C00000
0000E003E0
0000300630
0000180610
0000000010
0000000010
0000000030
0000000060
00000003C0
0000000200
FFE001FF80
FFE001FF80
7FC000FE00
1F00003C00
1F00001C00
1F00001C00
1E00001C00
1E00001E00
1E00001E00
1E00001E00
1E00001E00
1E00001E00
3E00001E00
3E00001E00
3E00001E00
3E00001E00
3E00001E00
3E00001E00
3E00001E00
3E00001E00
3E00001E00
3E00001E00
3E00001E00
3E00001E00
3E00001E00
1E00001E00
1E00001C00
1E00001C00
1F00003C00
0F00003800
0F80007800
07C000F000
07E001F000
03F807E000
01FFFFC000
007FFF0000
001FF80000
ENDCHAR
STARTCHAR 00D9
ENCODING 217
SWIDTH 700 0
DWIDTH 35 0
BBX 36 53 1 -1
BITMAP
0000008000
000003C000
000007C000
000007C000
00000F0000
00001C0000
0000380000
00006003E0
0000C00630
0000000610
0000000010
0000000010
0000000030
0000000060
00000003C0
0000000200
FFE001FF80
FFE001FF80
7FC000FE00
1F00003C00
1F00001C00
1F00001C00
1E00001C00
1E00001E00
1E00001E00
1E00001E00
1E00001E00
1E00001E00
3E00001E00
3E00001E00
3E00001E00
3E00001E00
3E00001E00
3E00001E00
3E00001E00
3E00001E00
3E00001E00
3E00001E00
3E00001E00
3E00001E00
3E00001E00
1E00001E00
1E00001C00
1E00001C00
1F00003C00
0F00003800
0F80007800
07C000F000
07E001F000
03F807E000
01FFFFC000
007FFF0000
001FF80000
ENDCHAR
STARTCHAR 00DA
ENCODING 218
SWIDTH 700 0
DWIDTH 35 0
BBX 33 49 1 -1
BITMAP
0000070000
00000F0000
00001F0000
00003C0000
0000780000
0000E00000
0001C00000
0003000000
0000000000
0000000000
0000000000
0000000000
FFE001FF80
FFE001FF80
7FC000FE00
1F00003C00
1F00001C00
1F00001C00
1E00001C00
1E00001E00
1E00001E00
1E00001E00
1E00001E00
1E00001E00
3E00001E00
3E00001E00
3E00001E00
3E00001E00
3E00001E00
3E00001E00
3E00001E00
3E00001E00
3E00001E00
3E00001E00
3E00001E00
3E00001E00
3E00001E00
1E00001E00
1E00001C00
1E00001C00
1F00003C00
0F00003800
0F80007800
07C000F000
07E001F000
03F807E000
01FFFFC000
007FFF0000
001FF80000
ENDCHAR
STARTCHAR 00DB
ENCODING 219
SWIDTH 700 0
DWIDTH 35 0
BBX 33 47 1 -1
BITMAP
000000C000
0003F9C000
0007FF8000
0006FF0000
000C0C0000
0008000000
0000000000
0000000000
0000000000
0000000000
FFE001FF80
FFE001FF80
7FC000FE00
1F00003C00
1F00001C00
1F00001C00
1E00001C00
1E00001E00
1E00001E00
1E00001E00
1E00001E00
1E00001E00
3E00001E00
3E00001E00
3E00001E00
3E00001E00
3E00001E00
3E00001E00
3E00001E00
3E00001E00
3E00001E00
3E00001E00
3E00001E00
3E00001E00
3E00001E00
1E00001E00
1E00001C00
1E00001C00
1F00003C00
0F00003800
0F80007800
07C000F000
07E001F000
03F807E000
01FFFFC000
007FFF0000
001FF80000
ENDCHAR
STARTCHAR 00DC
ENCODING 220
SWIDTH 700 0
DWIDTH 35 0
BBX 36 46 1 -1
BITMAP
00000003E0
0000000630
0000000610
0000000010
0000000010
0000000030
0000000060
00000003C0
0000000200
FFE001FF80
FFE001FF80
7FC000FE00
1F00003C00
1F00001C00
1F00001C00
1E00001C00
1E00001E00
1E00001E00
1E00001E00
1E00001E00
1E00001E00
3E00001E00
3E00001E00
3E00001E00
3E00001E00
3E00001E00
3E00001E00
3E00001E00
3E00001E00
3E00001E00
3E00001E00
3E00001E00
3E00001E00
3E00001E00
1E00001E00
1E00001C00
1E00001C00
1F00003C00
0F00003800
0F80007800
07C000F000
07E001F000
03F807E000
01FFFFC000
007FFF0000
001FF80000
ENDCHAR
STARTCHAR 00DD
ENCODING 221
SWIDTH 640 0
DWIDTH 32 0
BBX 34 48 -1 0
BITMAP
0000070000
00000F0000
00001F0000
00003E0000
0000780000
0000E00000
0001C00000
0003000000
0000000000
0000000000
0000000000
0000000000
FFC0007FC0
FFC0007F80
3F80003F00
1F00001F00
0F80001E00
0F80001C00
07C0003C00
07C0003800
03E0007000
01F0007000
01F000E000
00F801C000
007C01C000
007C038000
003E070000
001F0F0000
000F8E0000
000F9C0000
0007FC0000
0003F80000
0003F00000
0001F00000
0001F00000
0001F00000
0001F00000
0001F00000
0001F00000
0001F00000
0001F00000
0001F00000
0001F00000
0001F00000
0001F00000
0003F80000
000FFC0000
000FFC0000
ENDCHAR
STARTCHAR 00DE
ENCODING 222
SWIDTH 600 0
DWIDTH 30 0
BBX 28 51 2 0
BITMAP
00070000
0008C000
00184000
00186000
00006000
00004000
0000C000
00038000
00060000
00040000
00040000
00000000
00000000
00000000
00000000
FFFFFFC0
FFFFFFC0
7FFFFFC0
3F0003C0
3E0000C0
3E000040
3E000000
3E000000
3E000000
3E000000
3E000000
3E000000
3E000000
3E000400
3E000E00
3FFFFE00
3FFFFE00
3FFFFE00
3E000E00
3E000000
3E000000
3E000000
3E000000
3E000000
3E000000
3E000000
3E000000
3E000000
3E000000
3E000030
3E000070
3E0000F0
3F0003F0
7FFFFFF0
FFFFFFF0
FFFFFFE0
ENDCHAR
STARTCHAR 00DF
ENCODING 223
SWIDTH 660 0
DWIDTH 33 0
BBX 30 37 1 0
BITMAP
000FF000
007FFE00
00FCFF80
03E007C0
078003E0
078001E0
0F0001F0
0F0000F0
1E0000F0
1E0000F0
1E0000F0
1E0001F0
1E0001E0
1E0003C0
1E000780
1E003F00
1E1FFC00
1E3FFE00
1E00FF80
1E0003E0
1E0001F0
1E0000F8
1E000078
1E00003C
1E08003C
1E3C003C
1E3C003C
1E78003C
1E70003C
1E70003C
1E70007C
1E700078
1E7800F8
1E3C01F0
7F1FDFE0
FF8FFFC0
FF03FE00
ENDCHAR
STARTCHAR 00E0
ENCODING 224
SWIDTH 640 0
DWIDTH 32 0
BBX 33 48 0 0
BITMAP
0038000000
003C000000
003E000000
001F000000
0007800000
0001C00000
0000E00000
0000300000
0000000000
0000000000
0000000000
0000800000
0001C00000
0003C00000
0007E00000
0007F00000
000FF00000
000FF80000
001EF80000
001C7C0000
001C7C0000
003C3E0000
00383E0000
00781F0000
00701F0000
00F00F0000
00E00F8000
00E00F8000
01E007C000
01C007C000
03C003C000
038003E000
038003E000
07FFFFE000
07FFFFF000
070001F000
0F0000F000
0E0000F800
1E00007800
1E00007800
1C00007C00
3C00003C00
3C00003C00
3C00003E00
7C00003E00
7E00007F00
FF0000FF80
FF0000FF80
ENDCHAR
STARTCHAR 00E1
ENCODING 225
SWIDTH 640 0
DWIDTH 32 0
BBX 33 48 0 0
BITMAP
00000E0000
00001E0000
00003E0000
00007C0000
0000F00000
0001C00000
0003800000
0006000000
0000000000
0000000000
0000000000
0000800000
0001C00000
0003C00000
0007E00000
0007F00000
000FF00000
000FF80000
001EF80000
001C7C0000
001C7C0000
003C3E0000
00383E0000
00781F0000
00701F0000
00F00F0000
00E00F8000
00E00F8000
01E007C000
01C007C000
03C003C000
038003E000
038003E000
07FFFFE000
07FFFFF000
070001F000
0F0000F000
0E0000F800
1E00007800
1E00007800
1C00007C00
3C00003C00
3C00003C00
3C00003E00
7C00003E00
7E00007F00
FF0000FF80
FF0000FF80
ENDCHAR
STARTCHAR 00E2
ENCODING 226
SWIDTH 640 0
DWIDTH 32 0
BBX 33 48 0 0
BITMAP
0001C00000
0003E00000
0007F00000
0007700000
000E380000
001C1C0000
00180C0000
0030060000
0000000000
0000000000
0000000000
0000800000
0001C00000
0003C00000
0007E00000
0007F00000
000FF00000
000FF80000
001EF80000
001C7C0000
001C7C0000
003C3E0000
00383E0000
00781F0000
00701F0000
00F00F0000
00E00F8000
00E00F8000
01E007C000
01C007C000
03C003C000
038003E000
038003E000
07FFFFE000
07FFFFF000
070001F000
0F0000F000
0E0000F800
1E00007800
1E00007800
1C00007C00
3C00003C00
3C00003C00
3C00003E00
7C00003E00
7E00007F00
FF0000FF80
FF0000FF80
ENDCHAR
STARTCHAR 00E3
ENCODING 227
SWIDTH 640 0
DWIDTH 32 0
BBX 33 47 0 0
BITMAP
0000020000
000F860000
001FFE0000
003FFC0000
0030F80000
0020000000
0000000000
0000000000
0000000000
0000000000
0000800000
0001C00000
0003C00000
0007E00000
0007F00000
000FF00000
000FF80000
001EF80000
001C7C0000
001C7C0000
003C3E0000
00383E0000
00781F0000
00701F0000
00F00F0000
00E00F8000
00E00F8000
01E007C000
01C007C000
03C003C000
038003E000
038003E000
07FFFFE000
07FFFFF000
070001F000
0F0000F000
0E0000F800
1E00007800
1E00007800
1C00007C00
3C00003C00
3C00003C00
3C00003E00
7C00003E00
7E00007F00
FF0000FF80
FF0000FF80
ENDCHAR
STARTCHAR 00E4
ENCODING 228
SWIDTH 640 0
DWIDTH 32 0
BBX 33 51 0 0
BITMAP
0001C00000
0002300000
0006100000
0006180000
0000180000
0000100000
0000300000
0000E00000
0001800000
0001000000
0001000000
0000000000
0000000000
0000000000
0000800000
0001C00000
0003C00000
0007E00000
0007F00000
000FF00000
000FF80000
001EF80000
001C7C0000
001C7C0000
003C3E0000
00383E0000
00781F0000
00701F0000
00F00F0000
00E00F8000
00E00F8000
01E007C000
01C007C000
03C003C000
038003E000
038003E000
07FFFFE000
07FFFFF000
070001F000
0F0000F000
0E0000F800
1E00007800
1E00007800
1C00007C00
3C00003C00
3C00003C00
3C00003E00
7C00003E00
7E00007F00
FF0000FF80
FF0000FF80
ENDCHAR
STARTCHAR 00E5
ENCODING 229
SWIDTH 640 0
DWIDTH 32 0
BBX 33 45 0 -8
BITMAP
0000800000
0001C00000
0003C00000
0007E00000
0007F00000
000FF00000
000FF80000
001EF80000
001C7C0000
001C7C0000
003C3E0000
00383E0000
00781F0000
00701F0000
00F00F0000
00E00F8000
00E00F8000
01E007C000
01C007C000
03C003C000
038003E000
038003E000
07FFFFE000
07FFFFF000
070001F000
0F0000F000
0E0000F800
1E00007800
1E00007800
1C00007C00
3C00003C00
3C00003C00
3C00003E00
7C00003E00
7E00007F00
FF0000FF80
FF0000FF80
0000000000
0000000000
0003000000
0007800000
000F800000
000FC00000
0007800000
0003000000
ENDCHAR
STARTCHAR 00E6
ENCODING 230
SWIDTH 640 0
DWIDTH 32 0
BBX 33 46 0 0
BITMAP
0040040000
0020040000
00300C0000
003EF80000
001FF00000
000FE00000
0000000000
0000000000
0000000000
0000800000
0001C00000
0003C00000
0007E00000
0007F00000
000FF00000
000FF80000
001EF80000
001C7C0000
001C7C0000
003C3E0000
00383E0000
00781F0000
00701F0000
00F00F0000
00E00F8000
00E00F8000
01E007C000
01C007C000
03C003C000
038003E000
038003E000
07FFFFE000
07FFFFF000
070001F000
0F0000F000
0E0000F800
1E00007800
1E00007800
1C00007C00
3C00003C00
3C00003C00
3C00003E00
7C00003E00
7E00007F00
FF0000FF80
FF0000FF80
ENDCHAR
STARTCHAR 00E7
ENCODING 231
SWIDTH 680 0
DWIDTH 34 0
BBX 32 48 2 -11
BITMAP
0003FE00
001FFFC0
007FFFF8
01F803FC
03E000FC
07C0007C
0F80003C
1F00001C
3F00001C
3E00000C
7C00000C
7C000000
7C000000
F8000000
F8000000
F8000000
F8000000
F8000000
F8000000
F8000000
F8000000
F8000000
F8000000
F8000000
F8000000
FC000000
7C000000
7C000000
7E000002
3F000007
3F00000F
1F80001E
0FC0003C
07F000F8
03FE07F0
01FFFFE0
007FFF80
000FFC00
00008000
00008000
0000FC00
0000BE00
00000E00
00000E00
00000E00
001E1E00
000FFC00
0001F800
ENDCHAR
STARTCHAR 00E8
ENCODING 232
SWIDTH 600 0
DWIDTH 30 0
BBX 28 48 2 0
BITMAP
00E00000
01F00000
00F80000
007C0000
001E0000
000F0000
00038000
0000C000
00000000
00000000
00000000
00000000
FFFFFFC0
FFFFFFC0
7FFFFFC0
3F0003C0
3E0000C0
3E000040
3E000000
3E000000
3E000000
3E000000
3E000000
3E000000
3E000000
3E000400
3E000E00
3FFFFE00
3FFFFE00
3FFFFE00
3E000E00
3E000000
3E000000
3E000000
3E000000
3E000000
3E000000
3E000000
3E000000
3E000000
3E000000
3E000030
3E000070
3E0000F0
3F0003F0
7FFFFFF0
FFFFFFF0
FFFFFFE0
ENDCHAR
STARTCHAR 00E9
ENCODING 233
SWIDTH 600 0
DWIDTH 30 0
BBX 28 48 2 0
BITMAP
00003800
00007800
0000F800
0001E000
0003C000
00070000
000E0000
00180000
00200000
00000000
00000000
00000000
FFFFFFC0
FFFFFFC0
7FFFFFC0
3F0003C0
3E0000C0
3E000040
3E000000
3E000000
3E000000
3E000000
3E000000
3E000000
3E000000
3E000400
3E000E00
3FFFFE00
3FFFFE00
3FFFFE00
3E000E00
3E000000
3E000000
3E000000
3E000000
3E000000
3E000000
3E000000
3E000000
3E000000
3E000000
3E000030
3E000070
3E0000F0
3F0003F0
7FFFFFF0
FFFFFFF0
FFFFFFE0
ENDCHAR
STARTCHAR 00EA
ENCODING 234
SWIDTH 600 0
DWIDTH 30 0
BBX 28 48 2 0
BITMAP
000F0000
000F8000
001F8000
003DC000
0038E000
00706000
00E03000
00C01800
00000000
00000000
00000000
00000000
FFFFFFC0
FFFFFFC0
7FFFFFC0
3F0003C0
3E0000C0
3E000040
3E000000
3E000000
3E000000
3E000000
3E000000
3E000000
3E000000
3E000400
3E000E00
3FFFFE00
3FFFFE00
3FFFFE00
3E000E00
3E000000
3E000000
3E000000
3E000000
3E000000
3E000000
3E000000
3E000000
3E000000
3E000000
3E000030
3E000070
3E0000F0
3F0003F0
7FFFFFF0
FFFFFFF0
FFFFFFE0
ENDCHAR
STARTCHAR 00EB
ENCODING 235
SWIDTH 600 0
DWIDTH 30 0
BBX 28 46 2 0
BITMAP
00001000
007C3000
00FFE000
01FFE000
010FC000
03000000
00000000
00000000
00000000
00000000
FFFFFFC0
FFFFFFC0
7FFFFFC0
3F0003C0
3E0000C0
3E000040
3E000000
3E000000
3E000000
3E000000
3E000000
3E000000
3E000000
3E000400
3E000E00
3FFFFE00
3FFFFE00
3FFFFE00
3E000E00
3E000000
3E000000
3E000000
3E000000
3E000000
3E000000
3E000000
3E000000
3E000000
3E000000
3E000030
3E000070
3E0000F0
3F0003F0
7FFFFFF0
FFFFFFF0
FFFFFFE0
ENDCHAR
STARTCHAR 00EC
ENCODING 236
SWIDTH 260 0
DWIDTH 13 0
BBX 12 48 0 0
BITMAP
F000
F800
FC00
3E00
1F00
0700
0180
00C0
0020
0000
0000
0000
3FF0
3FF0
1FC0
0F80
0780
0780
0780
0780
0780
0780
0780
0780
0780
0780
0780
0780
0780
0780
0780
0780
0780
0780
0780
0780
0780
0780
0780
0780
0780
0780
0780
0780
0F80
1FE0
3FF0
3FF0
ENDCHAR
STARTCHAR 00ED
ENCODING 237
SWIDTH 260 0
DWIDTH 13 0
BBX 12 48 2 0
BITMAP
00F0
01F0
03E0
07C0
0F00
1E00
3800
7000
0000
0000
0000
0000
FFC0
FFC0
7F00
3E00
1E00
1E00
1E00
1E00
1E00
1E00
1E00
1E00
1E00
1E00
1E00
1E00
1E00
1E00
1E00
1E00
1E00
1E00
1E00
1E00
1E00
1E00
1E00
1E00
1E00
1E00
1E00
1E00
3E00
7F80
FFC0
FFC0
ENDCHAR
STARTCHAR 00EE
ENCODING 238
SWIDTH 260 0
DWIDTH 13 0
BBX 14 48 0 0
BITMAP
0780
0F80
0FC0
1FE0
3CE0
3070
6018
C008
0004
0000
0000
0000
3FF0
3FF0
1FC0
0F80
0780
0780
0780
0780
0780
0780
0780
0780
0780
0780
0780
0780
0780
0780
0780
0780
0780
0780
0780
0780
0780
0780
0780
0780
0780
0780
0780
0780
0F80
1FE0
3FF0
3FF0
ENDCHAR
STARTCHAR 00EF
ENCODING 239
SWIDTH 260 0
DWIDTH 13 0
BBX 13 46 0 0
BITMAP
0008
3E18
7FF8
FFF0
C3E0
8000
0000
0000
0000
0000
3FF0
3FF0
1FC0
0F80
0780
0780
0780
0780
0780
0780
0780
0780
0780
0780
0780
0780
0780
0780
0780
0780
0780
0780
0780
0780
0780
0780
0780
0780
0780
0780
0780
0780
0F80
1FE0
3FF0
3FF0
ENDCHAR
STARTCHAR 00F0
ENCODING 240
SWIDTH 640 0
DWIDTH 32 0
BBX 33 55 0 0
BITMAP
0000020000
0007020000
001FFE0000
003FFC0000
0033F80000
0020000000
0060000000
0000000000
0000000000
0040040000
0020040000
00300C0000
003EF80000
001FF00000
000FE00000
0000000000
0000000000
0000000000
0000800000
0001C00000
0003C00000
0007E00000
0007F00000
000FF00000
000FF80000
001EF80000
001C7C0000
001C7C0000
003C3E0000
00383E0000
00781F0000
00701F0000
00F00F0000
00E00F8000
00E00F8000
01E007C000
01C007C000
03C003C000
038003E000
038003E000
07FFFFE000
07FFFFF000
070001F000
0F0000F000
0E0000F800
1E00007800
1E00007800
1C00007C00
3C00003C00
3C00003C00
3C00003E00
7C00003E00
7E00007F00
FF0000FF80
FF0000FF80
ENDCHAR
STARTCHAR 00F1
ENCODING 241
SWIDTH 720 0
DWIDTH 36 0
BBX 35 36 0 0
BITMAP
3FFFF80000
3FFFFF0000
1FF8FFC000
0FC007F000
078001F800
0780007C00
0780003E00
0780001F00
0780001F00
0780000F80
0780000F80
07800007C0
07800007C0
07800007C0
07800007C0
FFFFC007E0
FFFFE007E0
07800003E0
07800007E0
07800007E0
07800007E0
07800007C0
07800007C0
07800007C0
07800007C0
0780000F80
0780000F80
0780001F00
0780003F00
0780007E00
078000FC00
07C001F800
0FC007F000
1FF9FFC000
3FFFFF0000
3FFFF00000
ENDCHAR
STARTCHAR 00F2
ENCODING 242
SWIDTH 760 0
DWIDTH 38 0
BBX 35 49 2 -1
BITMAP
001C000000
003E000000
001F000000
000F800000
0003C00000
0001E00000
0000700000
0000180000
0000000000
0000000000
0000000000
0007F80000
003FFF0000
00FFFFC000
01F807F000
03E001F800
07C0007C00
0F80003E00
1F00003E00
3E00001F00
3E00000F80
7C00000F80
7C00000F80
7C000007C0
F8000007C0
F8000007C0
F8000007C0
F8000007E0
F8000007E0
F8000003E0
F8000003E0
F8000007E0
F8000007E0
F8000007C0
F8000007C0
F8000007C0
7C000007C0
7C00000F80
7C00000F80
3E00000F80
3E00001F00
1F00001E00
0F80003E00
0FC0007C00
07E000F800
01F803F000
00FFFFC000
003FFF8000
000FFC0000
ENDCHAR
STARTCHAR 00F3
ENCODING 243
SWIDTH 760 0
DWIDTH 38 0
BBX 35 49 2 -1
BITMAP
0000070000
00000F0000
00001F0000
00003C0000
0000780000
0000E00000
0001C00000
0003000000
0004000000
0000000000
0000000000
0007F80000
003FFF0000
00FFFFC000
01F807F000
03E001F800
07C0007C00
0F80003E00
1F00003E00
3E00001F00
3E00000F80
7C00000F80
7C00000F80
7C000007C0
F8000007C0
F8000007C0
F8000007C0
F8000007E0
F8000007E0
F8000003E0
F8000003E0
F8000007E0
F8000007E0
F8000007C0
F8000007C0
F8000007C0
7C000007C0
7C00000F80
7C00000F80
3E00000F80
3E00001F00
1F00001E00
0F80003E00
0FC0007C00
07E000F800
01F803F000
00FFFFC000
003FFF8000
000FFC0000
ENDCHAR
STARTCHAR 00F4
ENCODING 244
SWIDTH 760 0
DWIDTH 38 0
BBX 35 49 2 -1
BITMAP
0001E00000
0001F00000
0003F00000
0007F80000
00071C0000
000E0C0000
001C060000
0018030000
0000000000
0000000000
0000000000
0007F80000
003FFF0000
00FFFFC000
01F807F000
03E001F800
07C0007C00
0F80003E00
1F00003E00
3E00001F00
3E00000F80
7C00000F80
7C00000F80
7C000007C0
F8000007C0
F8000007C0
F8000007C0
F8000007E0
F8000007E0
F8000003E0
F8000003E0
F8000007E0
F8000007E0
F8000007C0
F8000007C0
F8000007C0
7C000007C0
7C00000F80
7C00000F80
3E00000F80
3E00001F00
1F00001E00
0F80003E00
0FC0007C00
07E000F800
01F803F000
00FFFFC000
003FFF8000
000FFC0000
ENDCHAR
STARTCHAR 00F5
ENCODING 245
SWIDTH 760 0
DWIDTH 38 0
BBX 35 48 2 -1
BITMAP
0000010000
0007C30000
000FFE0000
001FFE0000
0010FC0000
0030000000
0000000000
0000000000
0000000000
0000000000
0007F80000
003FFF0000
00FFFFC000
01F807F000
03E001F800
07C0007C00
0F80003E00
1F00003E00
3E00001F00
3E00000F80
7C00000F80
7C00000F80
7C000007C0
F8000007C0
F8000007C0
F8000007C0
F8000007E0
F8000007E0
F8000003E0
F8000003E0
F8000007E0
F8000007E0
F8000007C0
F8000007C0
F8000007C0
7C000007C0
7C00000F80
7C00000F80
3E00000F80
3E00001F00
1F00001E00
0F80003E00
0FC0007C00
07E000F800
01F803F000
00FFFFC000
003FFF8000
000FFC0000
ENDCHAR
STARTCHAR 00F6
ENCODING 246
SWIDTH 760 0
DWIDTH 38 0
BBX 35 47 2 -1
BITMAP
000C0E0000
001E1F0000
001E1F0000
001E1F0000
001C0E0000
0000000000
0000000000
0000000000
0000000000
0007F80000
003FFF0000
00FFFFC000
01F807F000
03E001F800
07C0007C00
0F80003E00
1F00003E00
3E00001F00
3E00000F80
7C00000F80
7C00000F80
7C000007C0
F8000007C0
F8000007C0
F8000007C0
F8000007E0
F8000007E0
F8000003E0
F8000003E0
F8000007E0
F8000007E0
F8000007C0
F8000007C0
F8000007C0
7C000007C0
7C00000F80
7C00000F80
3E00000F80
3E00001F00
1F00001E00
0F80003E00
0FC0007C00
07E000F800
01F803F000
00FFFFC000
003FFF8000
000FFC0000
ENDCHAR
STARTCHAR 00F7
ENCODING 247
SWIDTH 760 0
DWIDTH 38 0
BBX 35 46 2 -1
BITMAP
0000001E00
0000003100
0000002180
0000000180
0000000180
0000000100
0000000700
0000001E00
0007F82000
003FFF2000
00FFFFC000
01F807F000
03E001F800
07C0007C00
0F80003E00
1F00003E00
3E00001F00
3E00000F80
7C00000F80
7C00000F80
7C000007C0
F8000007C0
F8000007C0
F8000007C0
F8000007E0
F8000007E0
F8000003E0
F8000003E0
F8000007E0
F8000007E0
F8000007C0
F8000007C0
F8000007C0
7C000007C0
7C00000F80
7C00000F80
3E00000F80
3E00001F00
1F00001E00
0F80003E00
0FC0007C00
07E000F800
01F803F000
00FFFFC000
003FFF8000
000FFC0000
ENDCHAR
STARTCHAR 00F8
ENCODING 248
SWIDTH 700 0
DWIDTH 35 0
BBX 33 45 1 -9
BITMAP
FFE001FF80
FFE001FF80
7FC000FE00
1F00003C00
1F00001C00
1F00001C00
1E00001C00
1E00001E00
1E00001E00
1E00001E00
1E00001E00
1E00001E00
3E00001E00
3E00001E00
3E00001E00
3E00001E00
3E00001E00
3E00001E00
3E00001E00
3E00001E00
3E00001E00
3E00001E00
3E00001E00
3E00001E00
3E00001E00
1E00001E00
1E00001C00
1E00001C00
1F00003C00
0F00003800
0F80007800
07C000F000
07E001F000
03F807E000
01FFFFC000
007FFF0000
001FF80000
0000000000
0000000000
0000800000
0003E00000
0003E00000
0003E00000
0003E00000
0001C00000
ENDCHAR
STARTCHAR 00F9
ENCODING 249
SWIDTH 700 0
DWIDTH 35 0
BBX 33 49 1 -1
BITMAP
001C000000
003E000000
001F000000
000F800000
0003C00000
0001E00000
0000700000
0000180000
0000000000
0000000000
0000000000
0000000000
FFE001FF80
FFE001FF80
7FC000FE00
1F00003C00
1F00001C00
1F00001C00
1E00001C00
1E00001E00
1E00001E00
1E00001E00
1E00001E00
1E00001E00
3E00001E00
3E00001E00
3E00001E00
3E00001E00
3E00001E00
3E00001E00
3E00001E00
3E00001E00
3E00001E00
3E00001E00
3E00001E00
3E00001E00
3E00001E00
1E00001E00
1E00001C00
1E00001C00
1F00003C00
0F00003800
0F80007800
07C000F000
07E001F000
03F807E000
01FFFFC000
007FFF0000
001FF80000
ENDCHAR
STARTCHAR 00FA
ENCODING 250
SWIDTH 700 0
DWIDTH 35 0
BBX 33 49 1 -1
BITMAP
0000070000
00000F0000
00001F0000
00003C0000
0000780000
0000E00000
0001C00000
0003000000
0000000000
0000000000
0000000000
0000000000
FFE001FF80
FFE001FF80
7FC000FE00
1F00003C00
1F00001C00
1F00001C00
1E00001C00
1E00001E00
1E00001E00
1E00001E00
1E00001E00
1E00001E00
3E00001E00
3E00001E00
3E00001E00
3E00001E00
3E00001E00
3E00001E00
3E00001E00
3E00001E00
3E00001E00
3E00001E00
3E00001E00
3E00001E00
3E00001E00
1E00001E00
1E00001C00
1E00001C00
1F00003C00
0F00003800
0F80007800
07C000F000
07E001F000
03F807E000
01FFFFC000
007FFF0000
001FF80000
ENDCHAR
STARTCHAR 00FB
ENCODING 251
SWIDTH 700 0
DWIDTH 35 0
BBX 33 52 1 -1
BITMAP
0000700000
00018C0000
0001840000
0001040000
0000040000
0000040000
00000C0000
0000380000
0000600000
0000400000
0000400000
0000000000
0000000000
0000000000
0000000000
FFE001FF80
FFE001FF80
7FC000FE00
1F00003C00
1F00001C00
1F00001C00
1E00001C00
1E00001E00
1E00001E00
1E00001E00
1E00001E00
1E00001E00
3E00001E00
3E00001E00
3E00001E00
3E00001E00
3E00001E00
3E00001E00
3E00001E00
3E00001E00
3E00001E00
3E00001E00
3E00001E00
3E00001E00
3E00001E00
1E00001E00
1E00001C00
1E00001C00
1F00003C00
0F00003800
0F80007800
07C000F000
07E001F000
03F807E000
01FFFFC000
007FFF0000
001FF80000
ENDCHAR
STARTCHAR 00FC
ENCODING 252
SWIDTH 700 0
DWIDTH 35 0
BBX 33 47 1 -1
BITMAP
000C0E0000
001E1F0000
001E1F0000
001E1F0000
000E0E0000
0000000000
0000000000
0000000000
0000000000
0000000000
FFE001FF80
FFE001FF80
7FC000FE00
1F00003C00
1F00001C00
1F00001C00
1E00001C00
1E00001E00
1E00001E00
1E00001E00
1E00001E00
1E00001E00
3E00001E00
3E00001E00
3E00001E00
3E00001E00
3E00001E00
3E00001E00
3E00001E00
3E00001E00
3E00001E00
3E00001E00
3E00001E00
3E00001E00
3E00001E00
1E00001E00
1E00001C00
1E00001C00
1F00003C00
0F00003800
0F80007800
07C000F000
07E001F000
03F807E000
01FFFFC000
007FFF0000
001FF80000
ENDCHAR
STARTCHAR 00FD
ENCODING 253
SWIDTH 640 0
DWIDTH 32 0
BBX 34 51 -1 0
BITMAP
0000E00000
0001180000
0003080000
00030C0000
00000C0000
0000080000
0000180000
0000700000
0000C00000
0000800000
0000800000
0000000000
0000000000
0000000000
0000000000
FFC0007FC0
FFC0007F80
3F80003F00
1F00001F00
0F80001E00
0F80001C00
07C0003C00
07C0003800
03E0007000
01F0007000
01F000E000
00F801C000
007C01C000
007C038000
003E070000
001F0F0000
000F8E0000
000F9C0000
0007FC0000
0003F80000
0003F00000
0001F00000
0001F00000
0001F00000
0001F00000
0001F00000
0001F00000
0001F00000
0001F00000
0001F00000
0001F00000
0001F00000
0001F00000
0003F80000
000FFC0000
000FFC0000
ENDCHAR
STARTCHAR 00FE
ENCODING 254
SWIDTH 600 0
DWIDTH 30 0
BBX 28 46 2 0
BITMAP
00001000
007C3000
00FFE000
01FFE000
010FC000
03000000
00000000
00000000
00000000
00000000
FFFFFFC0
FFFFFFC0
7FFFFFC0
3F0003C0
3E0000C0
3E000040
3E000000
3E000000
3E000000
3E000000
3E000000
3E000000
3E000000
3E000400
3E000E00
3FFFFE00
3FFFFE00
3FFFFE00
3E000E00
3E000000
3E000000
3E000000
3E000000
3E000000
3E000000
3E000000
3E000000
3E000000
3E000000
3E000030
3E000070
3E0000F0
3F0003F0
7FFFFFF0
FFFFFFF0
FFFFFFE0
ENDCHAR
STARTCHAR 00FF
ENCODING 255
SWIDTH 640 0
DWIDTH 32 0
BBX 34 48 -1 0
BITMAP
0030000000
0078000000
007C000000
003E000000
000F000000
0003800000
0001C00000
0000600000
0000300000
0000000000
0000000000
0000000000
FFC0007FC0
FFC0007F80
3F80003F00
1F00001F00
0F80001E00
0F80001C00
07C0003C00
07C0003800
03E0007000
01F0007000
01F000E000
00F801C000
007C01C000
007C038000
003E070000
001F0F0000
000F8E0000
000F9C0000
0007FC0000
0003F80000
0003F00000
0001F00000
0001F00000
0001F00000
0001F00000
0001F00000
0001F00000
0001F00000
0001F00000
0001F00000
0001F00000
0001F00000
0001F00000
0003F80000
000FFC0000
000FFC0000
ENDCHAR
STARTCHAR 0106
ENCODING 262
SWIDTH 680 0
DWIDTH 34 0
BBX 0 0 0 0
BITMAP
ENDCHAR
STARTCHAR 0107
ENCODING 263
SWIDTH 440 0
DWIDTH 22 0
BBX 0 0 0 0
BITMAP
ENDCHAR
STARTCHAR 010C
ENCODING 268
SWIDTH 680 0
DWIDTH 34 0
BBX 0 0 0 0
BITMAP
ENDCHAR
STARTCHAR 010D
ENCODING 269
SWIDTH 440 0
DWIDTH 22 0
BBX 0 0 0 0
BITMAP
ENDCHAR
STARTCHAR 0111
ENCODING 273
SWIDTH 560 0
DWIDTH 28 0
BBX 0 0 0 0
BITMAP
ENDCHAR
STARTCHAR 011E
ENCODING 286
SWIDTH 760 0
DWIDTH 38 0
BBX 0 0 0 0
BITMAP
ENDCHAR
STARTCHAR 011F
ENCODING 287
SWIDTH 480 0
DWIDTH 24 0
BBX 0 0 0 0
BITMAP
ENDCHAR
STARTCHAR 0130
ENCODING 304
SWIDTH 260 0
DWIDTH 13 0
BBX 0 0 0 0
BITMAP
ENDCHAR
STARTCHAR 0131
ENCODING 305
SWIDTH 240 0
DWIDTH 12 0
BBX 0 0 0 0
BITMAP
ENDCHAR
STARTCHAR 0141
ENCODING 321
SWIDTH 580 0
DWIDTH 29 0
BBX 0 0 0 0
BITMAP
ENDCHAR
STARTCHAR 0142
ENCODING 322
SWIDTH 220 0
DWIDTH 11 0
BBX 0 0 0 0
BITMAP
ENDCHAR
STARTCHAR 0152
ENCODING 338
SWIDTH 600 0
DWIDTH 30 0
BBX 28 57 2 -9
BITMAP
000F0000
000F8000
001F8000
003DC000
0038E000
00706000
00E03000
00C01800
00000000
00000000
00000000
00000000
FFFFFFC0
FFFFFFC0
7FFFFFC0
3F0003C0
3E0000C0
3E000040
3E000000
3E000000
3E000000
3E000000
3E000000
3E000000
3E000000
3E000400
3E000E00
3FFFFE00
3FFFFE00
3FFFFE00
3E000E00
3E000000
3E000000
3E000000
3E000000
3E000000
3E000000
3E000000
3E000000
3E000000
3E000000
3E000030
3E000070
3E0000F0
3F0003F0
7FFFFFF0
FFFFFFF0
FFFFFFE0
00000000
00000000
00000000
00070000
000F8000
000F8000
000F8000
000F8000
00020000
ENDCHAR
STARTCHAR 0153
ENCODING 339
SWIDTH 640 0
DWIDTH 32 0
BBX 34 44 -1 -8
BITMAP
FFC0007FC0
FFC0007F80
3F80003F00
1F00001F00
0F80001E00
0F80001C00
07C0003C00
07C0003800
03E0007000
01F0007000
01F000E000
00F801C000
007C01C000
007C038000
003E070000
001F0F0000
000F8E0000
000F9C0000
0007FC0000
0003F80000
0003F00000
0001F00000
0001F00000
0001F00000
0001F00000
0001F00000
0001F00000
0001F00000
0001F00000
0001F00000
0001F00000
0001F00000
0001F00000
0003F80000
000FFC0000
000FFC0000
0000000000
0000000000
0000000000
0000F00000
0001F00000
0001F00000
0001F00000
0000E00000
ENDCHAR
STARTCHAR 015E
ENCODING 350
SWIDTH 580 0
DWIDTH 29 0
BBX 0 0 0 0
BITMAP
ENDCHAR
STARTCHAR 015F
ENCODING 351
SWIDTH 380 0
DWIDTH 19 0
BBX 0 0 0 0
BITMAP
ENDCHAR
STARTCHAR 0160
ENCODING 352
SWIDTH 600 0
DWIDTH 30 0
BBX 29 54 1 0
BITMAP
E0000000
F0000000
F8000000
7C000000
3E000000
0F000000
03878000
01C7C000
006FC000
001EE000
001C7000
00383000
00701800
00600C00
00000000
00000000
00000000
00000000
7FFFFFE0
7FFFFFE0
3FFFFFE0
1F8001E0
1F000060
1F000020
1F000000
1F000000
1F000000
1F000000
1F000000
1F000000
1F000000
1F000200
1F000700
1FFFFF00
1FFFFF00
1FFFFF00
1F000700
1F000000
1F000000
1F000000
1F000000
1F000000
1F000000
1F000000
1F000000
1F000000
1F000000
1F000018
1F000038
1F000078
1F8001F8
3FFFFFF8
7FFFFFF8
7FFFFFF0
ENDCHAR
STARTCHAR 0161
ENCODING 353
SWIDTH 640 0
DWIDTH 32 0
BBX 34 48 -1 0
BITMAP
0000070000
00000F0000
00001F0000
00003E0000
0000780000
0000E00000
0001C00000
0003000000
0000000000
0000000000
0000000000
0000000000
FFC0007FC0
FFC0007F80
3F80003F00
1F00001F00
0F80001E00
0F80001C00
07C0003C00
07C0003800
03E0007000
01F0007000
01F000E000
00F801C000
007C01C000
007C038000
003E070000
001F0F0000
000F8E0000
000F9C0000
0007FC0000
0003F80000
0003F00000
0001F00000
0001F00000
0001F00000
0001F00000
0001F00000
0001F00000
0001F00000
0001F00000
0001F00000
0001F00000
0001F00000
0001F00000
0003F80000
000FFC0000
000FFC0000
ENDCHAR
STARTCHAR 0178
ENCODING 376
SWIDTH 760 0
DWIDTH 38 0
BBX 35 55 2 -1
BITMAP
0000F00000
0001080000
00030C0000
00010C0000
00000C0000
00000C0000
0000180000
0000380000
0000600000
0000401E00
0000403100
0000002180
0000000180
0000000180
0000000100
0000000700
0000001E00
0007F82000
003FFF2000
00FFFFC000
01F807F000
03E001F800
07C0007C00
0F80003E00
1F00003E00
3E00001F00
3E00000F80
7C00000F80
7C00000F80
7C000007C0
F8000007C0
F8000007C0
F8000007C0
F8000007E0
F8000007E0
F8000003E0
F8000003E0
F8000007E0
F8000007E0
F8000007C0
F8000007C0
F8000007C0
7C000007C0
7C00000F80
7C00000F80
3E00000F80
3E00001F00
1F00001E00
0F80003E00
0FC0007C00
07E000F800
01F803F000
00FFFFC000
003FFF8000
000FFC0000
ENDCHAR
STARTCHAR 017D
ENCODING 381
SWIDTH 540 0
DWIDTH 27 0
BBX 0 0 0 0
BITMAP
ENDCHAR
STARTCHAR 017E
ENCODING 382
SWIDTH 380 0
DWIDTH 19 0
BBX 0 0 0 0
BITMAP
ENDCHAR
STARTCHAR 0192
ENCODING 402
SWIDTH 640 0
DWIDTH 32 0
BBX 33 54 0 0
BITMAP
0000000380
0000000780
0000000F80
0000001F00
0000003C00
0000007800
0001C0E000
0003E18000
0007F30000
0007700000
000E380000
001C1C0000
00180C0000
0030060000
0000000000
0000000000
0000000000
0000800000
0001C00000
0003C00000
0007E00000
0007F00000
000FF00000
000FF80000
001EF80000
001C7C0000
001C7C0000
003C3E0000
00383E0000
00781F0000
00701F0000
00F00F0000
00E00F8000
00E00F8000
01E007C000
01C007C000
03C003C000
038003E000
038003E000
07FFFFE000
07FFFFF000
070001F000
0F0000F000
0E0000F800
1E00007800
1E00007800
1C00007C00
3C00003C00
3C00003C00
3C00003E00
7C00003E00
7E00007F00
FF0000FF80
FF0000FF80
ENDCHAR
STARTCHAR 02C6
ENCODING 710
SWIDTH 640 0
DWIDTH 32 0
BBX 33 46 0 0
BITMAP
0040040000
0020040000
00300C0000
003EF80000
001FF00000
000FE00000
0000000000
0000000000
0000000000
0000800000
0001C00000
0003C00000
0007E00000
0007F00000
000FF00000
000FF80000
001EF80000
001C7C0000
001C7C0000
003C3E0000
00383E0000
00781F0000
00701F0000
00F00F0000
00E00F8000
00E00F8000
01E007C000
01C007C000
03C003C000
038003E000
038003E000
07FFFFE000
07FFFFF000
070001F000
0F0000F000
0E0000F800
1E00007800
1E00007800
1C00007C00
3C00003C00
3C00003C00
3C00003E00
7C00003E00
7E00007F00
FF0000FF80
FF0000FF80
ENDCHAR
STARTCHAR 02C7
ENCODING 711
SWIDTH 500 0
DWIDTH 25 0
BBX 0 0 0 0
BITMAP
ENDCHAR
STARTCHAR 02DA
ENCODING 730
SWIDTH 500 0
DWIDTH 25 0
BBX 0 0 0 0
BITMAP
ENDCHAR
STARTCHAR 02DB
ENCODING 731
SWIDTH 500 0
DWIDTH 25 0
BBX 0 0 0 0
BITMAP
ENDCHAR
STARTCHAR 02DC
ENCODING 732
SWIDTH 760 0
DWIDTH 38 0
BBX 35 57 2 -1
BITMAP
000000F000
0000018800
0000010C00
0000010400
0000000400
0000000C00
0000001800
0000003800
0001E06000
0001F04000
0003F04000
0007F80000
00071C0000
000E0C0000
001C060000
0018030000
0000000000
0000000000
0000000000
0007F80000
003FFF0000
00FFFFC000
01F807F000
03E001F800
07C0007C00
0F80003E00
1F00003E00
3E00001F00
3E00000F80
7C00000F80
7C00000F80
7C000007C0
F8000007C0
F8000007C0
F8000007C0
F8000007E0
F8000007E0
F8000003E0
F8000003E0
F8000007E0
F8000007E0
F8000007C0
F8000007C0
F8000007C0
7C000007C0
7C00000F80
7C00000F80
3E00000F80
3E00001F00
1F00001E00
0F80003E00
0FC0007C00
07E000F800
01F803F000
00FFFFC000
003FFF8000
000FFC0000
ENDCHAR
STARTCHAR 03A9
ENCODING 937
SWIDTH 760 0
DWIDTH 38 0
BBX 0 0 0 0
BITMAP
ENDCHAR
STARTCHAR 03C0
ENCODING 960
SWIDTH 660 0
DWIDTH 33 0
BBX 0 0 0 0
BITMAP
ENDCHAR
STARTCHAR 2013
ENCODING 8211
SWIDTH 760 0
DWIDTH 38 0
BBX 35 55 2 -1
BITMAP
0000000380
0000000780
0000000F80
0000001F00
0000003E00
0000007800
0001E0E000
0001F1C000
0003F30000
0007F80000
00071C0000
000E0C0000
001C060000
0018030000
0000000000
0000000000
0000000000
0007F80000
003FFF0000
00FFFFC000
01F807F000
03E001F800
07C0007C00
0F80003E00
1F00003E00
3E00001F00
3E00000F80
7C00000F80
7C00000F80
7C000007C0
F8000007C0
F8000007C0
F8000007C0
F8000007E0
F8000007E0
F8000003E0
F8000003E0
F8000007E0
F8000007E0
F8000007C0
F8000007C0
F8000007C0
7C000007C0
7C00000F80
7C00000F80
3E00000F80
3E00001F00
1F00001E00
0F80003E00
0FC0007C00
07E000F800
01F803F000
00FFFFC000
003FFF8000
000FFC0000
ENDCHAR
STARTCHAR 2014
ENCODING 8212
SWIDTH 760 0
DWIDTH 38 0
BBX 35 55 2 -1
BITMAP
3000000000
7800000000
7C00000000
3E00000000
0F00000000
0380000000
01C1E00000
0061F00000
0033F00000
0007F80000
00071C0000
000E0C0000
001C060000
0018030000
0000000000
0000000000
0000000000
0007F80000
003FFF0000
00FFFFC000
01F807F000
03E001F800
07C0007C00
0F80003E00
1F00003E00
3E00001F00
3E00000F80
7C00000F80
7C00000F80
7C000007C0
F8000007C0
F8000007C0
F8000007C0
F8000007E0
F8000007E0
F8000003E0
F8000003E0
F8000007E0
F8000007E0
F8000007C0
F8000007C0
F8000007C0
7C000007C0
7C00000F80
7C00000F80
3E00000F80
3E00001F00
1F00001E00
0F80003E00
0FC0007C00
07E000F800
01F803F000
00FFFFC000
003FFF8000
000FFC0000
ENDCHAR
STARTCHAR 2018
ENCODING 8216
SWIDTH 260 0
DWIDTH 13 0
BBX 6 13 5 24
BITMAP
08
18
30
60
40
C0
C0
C0
F8
FC
FC
FC
78
ENDCHAR
STARTCHAR 2019
ENCODING 8217
SWIDTH 260 0
DWIDTH 13 0
BBX 6 13 3 24
BITMAP
70
F8
FC
FC
FC
1C
0C
0C
18
18
30
60
40
ENDCHAR
STARTCHAR 201A
ENCODING 8218
SWIDTH 640 0
DWIDTH 32 0
BBX 33 47 0 0
BITMAP
0000020000
000F860000
001FFE0000
003FFC0000
0030F80000
0020000000
0000000000
0000000000
0000000000
0000000000
0000800000
0001C00000
0003C00000
0007E00000
0007F00000
000FF00000
000FF80000
001EF80000
001C7C0000
001C7C0000
003C3E0000
00383E0000
00781F0000
00701F0000
00F00F0000
00E00F8000
00E00F8000
01E007C000
01C007C000
03C003C000
038003E000
038003E000
07FFFFE000
07FFFFF000
070001F000
0F0000F000
0E0000F800
1E00007800
1E00007800
1C00007C00
3C00003C00
3C00003C00
3C00003E00
7C00003E00
7E00007F00
FF0000FF80
FF0000FF80
ENDCHAR
STARTCHAR 201C
ENCODING 8220
SWIDTH 600 0
DWIDTH 30 0
BBX 29 54 1 0
BITMAP
E0000000
F0000000
F8000000
7C000000
3E000000
0F000000
03878000
01C7C000
006FC000
001EE000
001C7000
00383000
00701800
00600C00
00000000
00000000
00000000
00000000
7FFFFFE0
7FFFFFE0
3FFFFFE0
1F8001E0
1F000060
1F000020
1F000000
1F000000
1F000000
1F000000
1F000000
1F000000
1F000000
1F000200
1F000700
1FFFFF00
1FFFFF00
1FFFFF00
1F000700
1F000000
1F000000
1F000000
1F000000
1F000000
1F000000
1F000000
1F000000
1F000000
1F000000
1F000018
1F000038
1F000078
1F8001F8
3FFFFFF8
7FFFFFF8
7FFFFFF0
ENDCHAR
STARTCHAR 201D
ENCODING 8221
SWIDTH 600 0
DWIDTH 30 0
BBX 28 56 2 0
BITMAP
00000F80
00001840
00001860
00000060
00000060
000000C0
000001C0
00000300
000F0600
000F8400
001F8000
003DC000
0038E000
00706000
00E03000
00C01800
00000000
00000000
00000000
00000000
FFFFFFC0
FFFFFFC0
7FFFFFC0
3F0003C0
3E0000C0
3E000040
3E000000
3E000000
3E000000
3E000000
3E000000
3E000000
3E000000
3E000400
3E000E00
3FFFFE00
3FFFFE00
3FFFFE00
3E000E00
3E000000
3E000000
3E000000
3E000000
3E000000
3E000000
3E000000
3E000000
3E000000
3E000000
3E000030
3E000070
3E0000F0
3F0003F0
7FFFFFF0
FFFFFFF0
FFFFFFE0
ENDCHAR
STARTCHAR 201E
ENCODING 8222
SWIDTH 640 0
DWIDTH 32 0
BBX 33 54 0 0
BITMAP
7000000000
7800000000
7C00000000
3E00000000
0F00000000
0780000000
01C1C00000
00E3E00000
0037F00000
0007700000
000E380000
001C1C0000
00180C0000
0030060000
0000000000
0000000000
0000000000
0000800000
0001C00000
0003C00000
0007E00000
0007F00000
000FF00000
000FF80000
001EF80000
001C7C0000
001C7C0000
003C3E0000
00383E0000
00781F0000
00701F0000
00F00F0000
00E00F8000
00E00F8000
01E007C000
01C007C000
03C003C000
038003E000
038003E000
07FFFFE000
07FFFFF000
070001F000
0F0000F000
0E0000F800
1E00007800
1E00007800
1C00007C00
3C00003C00
3C00003C00
3C00003E00
7C00003E00
7E00007F00
FF0000FF80
FF0000FF80
ENDCHAR
STARTCHAR 2020
ENCODING 8224
SWIDTH 760 0
DWIDTH 38 0
BBX 35 46 2 -9
BITMAP
0007F80000
003FFF0000
00FFFFC000
01F807F000
03E001F800
07C0007C00
0F80003E00
1F00003E00
3E00001F00
3E00000F80
7C00000F80
7C00000F80
7C000007C0
F8000007C0
F8000007C0
F8000007C0
F8000007E0
F8000007E0
F8000003E0
F8000003E0
F8000007E0
F8000007E0
F8000007C0
F8000007C0
F8000007C0
7C000007C0
7C00000F80
7C00000F80
3E00000F80
3E00001F00
1F00001E00
0F80003E00
0FC0007C00
07E000F800
01F803F000
00FFFFC000
003FFF8000
000FFC0000
0000000000
0000000000
0000400000
0001F00000
0001F00000
0001F00000
0001F00000
0000E00000
ENDCHAR
STARTCHAR 2021
ENCODING 8225
SWIDTH 760 0
DWIDTH 38 0
BBX 35 56 2 -1
BITMAP
0000010000
0003830000
000FFF0000
001FFE0000
0018FC0000
0030000000
0000000000
0001E00000
0001F00000
0003F00000
0007F80000
00071C0000
000E0C0000
001C060000
0018030000
0000000000
0000000000
0000000000
0007F80000
003FFF0000
00FFFFC000
01F807F000
03E001F800
07C0007C00
0F80003E00
1F00003E00
3E00001F00
3E00000F80
7C00000F80
7C00000F80
7C000007C0
F8000007C0
F8000007C0
F8000007C0
F8000007E0
F8000007E0
F8000003E0
F8000003E0
F8000007E0
F8000007E0
F8000007C0
F8000007C0
F8000007C0
7C000007C0
7C00000F80
7C00000F80
3E00000F80
3E00001F00
1F00001E00
0F80003E00
0FC0007C00
07E000F800
01F803F000
00FFFFC000
003FFF8000
000FFC0000
ENDCHAR
STARTCHAR 2022
ENCODING 8226
SWIDTH 600 0
DWIDTH 30 0
BBX 28 55 2 0
BITMAP
00000800
001C0800
007FF800
00FFF000
00CFE000
00800000
01800000
000F0000
000F8000
001F8000
003DC000
0038E000
00706000
00E03000
00C01800
00000000
00000000
00000000
00000000
FFFFFFC0
FFFFFFC0
7FFFFFC0
3F0003C0
3E0000C0
3E000040
3E000000
3E000000
3E000000
3E000000
3E000000
3E000000
3E000000
3E000400
3E000E00
3FFFFE00
3FFFFE00
3FFFFE00
3E000E00
3E000000
3E000000
3E000000
3E000000
3E000000
3E000000
3E000000
3E000000
3E000000
3E000000
3E000030
3E000070
3E0000F0
3F0003F0
7FFFFFF0
FFFFFFF0
FFFFFFE0
ENDCHAR
STARTCHAR 2026
ENCODING 8230
SWIDTH 640 0
DWIDTH 32 0
BBX 33 57 0 0
BITMAP
0000008000
0000076000
0000043000
0000041000
0000001000
0000001000
0000003000
0000006000
000001C000
0001C10000
0003E10000
0007F10000
0007700000
000E380000
001C1C0000
00180C0000
0030060000
0000000000
0000000000
0000000000
0000800000
0001C00000
0003C00000
0007E00000
0007F00000
000FF00000
000FF80000
001EF80000
001C7C0000
001C7C0000
003C3E0000
00383E0000
00781F0000
00701F0000
00F00F0000
00E00F8000
00E00F8000
01E007C000
01C007C000
03C003C000
038003E000
038003E000
07FFFFE000
07FFFFF000
070001F000
0F0000F000
0E0000F800
1E00007800
1E00007800
1C00007C00
3C00003C00
3C00003C00
3C00003E00
7C00003E00
7E00007F00
FF0000FF80
FF0000FF80
ENDCHAR
STARTCHAR 2030
ENCODING 8240
SWIDTH 600 0
DWIDTH 30 0
BBX 30 54 2 0
BITMAP
0000001C
0000003C
0000007C
000000F0
000001E0
00000380
000F0700
000F8C00
001F9000
003DC000
0038E000
00706000
00E03000
00C01800
00000000
00000000
00000000
00000000
FFFFFFC0
FFFFFFC0
7FFFFFC0
3F0003C0
3E0000C0
3E000040
3E000000
3E000000
3E000000
3E000000
3E000000
3E000000
3E000000
3E000400
3E000E00
3FFFFE00
3FFFFE00
3FFFFE00
3E000E00
3E000000
3E000000
3E000000
3E000000
3E000000
3E000000
3E000000
3E000000
3E000000
3E000000
3E000030
3E000070
3E0000F0
3F0003F0
7FFFFFF0
FFFFFFF0
FFFFFFE0
ENDCHAR
STARTCHAR 2039
ENCODING 8249
SWIDTH 600 0
DWIDTH 30 0
BBX 28 56 2 0
BITMAP
00000F80
00001840
00001860
00000060
00000060
000000C0
000001C0
00000300
000F0600
000F8400
001F8000
003DC000
0038E000
00706000
00E03000
00C01800
00000000
00000000
00000000
00000000
FFFFFFC0
FFFFFFC0
7FFFFFC0
3F0003C0
3E0000C0
3E000040
3E000000
3E000000
3E000000
3E000000
3E000000
3E000000
3E000000
3E000400
3E000E00
3FFFFE00
3FFFFE00
3FFFFE00
3E000E00
3E000000
3E000000
3E000000
3E000000
3E000000
3E000000
3E000000
3E000000
3E000000
3E000000
3E000030
3E000070
3E0000F0
3F0003F0
7FFFFFF0
FFFFFFF0
FFFFFFE0
ENDCHAR
STARTCHAR 203A
ENCODING 8250
SWIDTH 640 0
DWIDTH 32 0
BBX 34 51 -1 0
BITMAP
0000E00000
0001180000
0003080000
00030C0000
00000C0000
0000080000
0000180000
0000700000
0000C00000
0000800000
0000800000
0000000000
0000000000
0000000000
0000000000
FFC0007FC0
FFC0007F80
3F80003F00
1F00001F00
0F80001E00
0F80001C00
07C0003C00
07C0003800
03E0007000
01F0007000
01F000E000
00F801C000
007C01C000
007C038000
003E070000
001F0F0000
000F8E0000
000F9C0000
0007FC0000
0003F80000
0003F00000
0001F00000
0001F00000
0001F00000
0001F00000
0001F00000
0001F00000
0001F00000
0001F00000
0001F00000
0001F00000
0001F00000
0001F00000
0003F80000
000FFC0000
000FFC0000
ENDCHAR
STARTCHAR 20A3
ENCODING 8355
SWIDTH 880 0
DWIDTH 44 0
BBX 0 0 0 0
BITMAP
ENDCHAR
STARTCHAR 2122
ENCODING 8482
SWIDTH 760 0
DWIDTH 38 0
BBX 35 56 2 -1
BITMAP
0000010000
0003830000
000FFF0000
001FFE0000
0018FC0000
0030000000
0000000000
0001E00000
0001F00000
0003F00000
0007F80000
00071C0000
000E0C0000
001C060000
0018030000
0000000000
0000000000
0000000000
0007F80000
003FFF0000
00FFFFC000
01F807F000
03E001F800
07C0007C00
0F80003E00
1F00003E00
3E00001F00
3E00000F80
7C00000F80
7C00000F80
7C000007C0
F8000007C0
F8000007C0
F8000007C0
F8000007E0
F8000007E0
F8000003E0
F8000003E0
F8000007E0
F8000007E0
F8000007C0
F8000007C0
F8000007C0
7C000007C0
7C00000F80
7C00000F80
3E00000F80
3E00001F00
1F00001E00
0F80003E00
0FC0007C00
07E000F800
01F803F000
00FFFFC000
003FFF8000
000FFC0000
ENDCHAR
STARTCHAR 2202
ENCODING 8706
SWIDTH 500 0
DWIDTH 25 0
BBX 0 0 0 0
BITMAP
ENDCHAR
STARTCHAR 2206
ENCODING 8710
SWIDTH 580 0
DWIDTH 29 0
BBX 0 0 0 0
BITMAP
ENDCHAR
STARTCHAR 220F
ENCODING 8719
SWIDTH 760 0
DWIDTH 38 0
BBX 0 0 0 0
BITMAP
ENDCHAR
STARTCHAR 2211
ENCODING 8721
SWIDTH 700 0
DWIDTH 35 0
BBX 0 0 0 0
BITMAP
ENDCHAR
STARTCHAR 2212
ENCODING 8722
SWIDTH 820 0
DWIDTH 41 0
BBX 0 0 0 0
BITMAP
ENDCHAR
STARTCHAR 2215
ENCODING 8725
SWIDTH 160 0
DWIDTH 8 0
BBX 0 0 0 0
BITMAP
ENDCHAR
STARTCHAR 2219
ENCODING 8729
SWIDTH 260 0
DWIDTH 13 0
BBX 10 51 2 0
BITMAP
1F00
3180
3080
0080
0080
0180
0380
0700
0800
0800
0800
0000
0000
0000
0000
FFC0
FFC0
7F00
3E00
1E00
1E00
1E00
1E00
1E00
1E00
1E00
1E00
1E00
1E00
1E00
1E00
1E00
1E00
1E00
1E00
1E00
1E00
1E00
1E00
1E00
1E00
1E00
1E00
1E00
1E00
1E00
1E00
3E00
7F80
FFC0
FFC0
ENDCHAR
STARTCHAR 221A
ENCODING 8730
SWIDTH 620 0
DWIDTH 31 0
BBX 0 0 0 0
BITMAP
ENDCHAR
STARTCHAR 221E
ENCODING 8734
SWIDTH 820 0
DWIDTH 41 0
BBX 0 0 0 0
BITMAP
ENDCHAR
STARTCHAR 222B
ENCODING 8747
SWIDTH 480 0
DWIDTH 24 0
BBX 0 0 0 0
BITMAP
ENDCHAR
STARTCHAR 2248
ENCODING 8776
SWIDTH 820 0
DWIDTH 41 0
BBX 0 0 0 0
BITMAP
ENDCHAR
STARTCHAR 2260
ENCODING 8800
SWIDTH 820 0
DWIDTH 41 0
BBX 0 0 0 0
BITMAP
ENDCHAR
STARTCHAR 2264
ENCODING 8804
SWIDTH 820 0
DWIDTH 41 0
BBX 0 0 0 0
BITMAP
ENDCHAR
STARTCHAR 2265
ENCODING 8805
SWIDTH 820 0
DWIDTH 41 0
BBX 0 0 0 0
BITMAP
ENDCHAR
STARTCHAR 25CA
ENCODING 9674
SWIDTH 480 0
DWIDTH 24 0
BBX 0 0 0 0
BITMAP
ENDCHAR
STARTCHAR F000
ENCODING 61440
SWIDTH 780 0
DWIDTH 39 0
BBX 0 0 0 0
BITMAP
ENDCHAR
STARTCHAR F001
ENCODING 61441
SWIDTH 520 0
DWIDTH 26 0
BBX 0 0 0 0
BITMAP
ENDCHAR
STARTCHAR F002
ENCODING 61442
SWIDTH 500 0
DWIDTH 25 0
BBX 0 0 0 0
BITMAP
ENDCHAR
ENDFONT
